<svg xmlns="http://www.w3.org/2000/svg" xmlns:xlink="http://www.w3.org/1999/xlink" width="1000" zoomAndPan="magnify" viewBox="0 0 750 374.999991" height="500" preserveAspectRatio="xMidYMid meet" version="1.0"><defs><g/><clipPath id="7cc1deb611"><path d="M 141.6875 135.949219 L 215.527344 135.949219 L 215.527344 239 L 141.6875 239 Z M 141.6875 135.949219 " clip-rule="nonzero"/></clipPath><clipPath id="a5ac389b3e"><path d="M 511 66 L 622 66 L 622 160 L 511 160 Z M 511 66 " clip-rule="nonzero"/></clipPath><clipPath id="e2982bf8c3"><path d="M 531.269531 59.746094 L 638.023438 87.289062 L 617.972656 164.996094 L 511.21875 137.449219 Z M 531.269531 59.746094 " clip-rule="nonzero"/></clipPath><clipPath id="89395341a9"><path d="M 531.269531 59.746094 L 638.023438 87.289062 L 617.972656 164.996094 L 511.21875 137.449219 Z M 531.269531 59.746094 " clip-rule="nonzero"/></clipPath><clipPath id="1cde2b884a"><path d="M 529 113 L 551 113 L 551 130 L 529 130 Z M 529 113 " clip-rule="nonzero"/></clipPath><clipPath id="23ab50f13f"><path d="M 531.269531 59.746094 L 638.023438 87.289062 L 617.972656 164.996094 L 511.21875 137.449219 Z M 531.269531 59.746094 " clip-rule="nonzero"/></clipPath><clipPath id="c4415ddcaa"><path d="M 531.269531 59.746094 L 638.023438 87.289062 L 617.972656 164.996094 L 511.21875 137.449219 Z M 531.269531 59.746094 " clip-rule="nonzero"/></clipPath><clipPath id="e9ac5fc5ad"><path d="M 537 93 L 557 93 L 557 111 L 537 111 Z M 537 93 " clip-rule="nonzero"/></clipPath><clipPath id="f32121def0"><path d="M 531.269531 59.746094 L 638.023438 87.289062 L 617.972656 164.996094 L 511.21875 137.449219 Z M 531.269531 59.746094 " clip-rule="nonzero"/></clipPath><clipPath id="f846e89bae"><path d="M 531.269531 59.746094 L 638.023438 87.289062 L 617.972656 164.996094 L 511.21875 137.449219 Z M 531.269531 59.746094 " clip-rule="nonzero"/></clipPath><clipPath id="b20e19c300"><path d="M 551 118 L 571 118 L 571 136 L 551 136 Z M 551 118 " clip-rule="nonzero"/></clipPath><clipPath id="5460ce6c9a"><path d="M 531.269531 59.746094 L 638.023438 87.289062 L 617.972656 164.996094 L 511.21875 137.449219 Z M 531.269531 59.746094 " clip-rule="nonzero"/></clipPath><clipPath id="200716f0c4"><path d="M 531.269531 59.746094 L 638.023438 87.289062 L 617.972656 164.996094 L 511.21875 137.449219 Z M 531.269531 59.746094 " clip-rule="nonzero"/></clipPath><clipPath id="5805a5464c"><path d="M 560 99 L 580 99 L 580 116 L 560 116 Z M 560 99 " clip-rule="nonzero"/></clipPath><clipPath id="2be0e050df"><path d="M 531.269531 59.746094 L 638.023438 87.289062 L 617.972656 164.996094 L 511.21875 137.449219 Z M 531.269531 59.746094 " clip-rule="nonzero"/></clipPath><clipPath id="7d3855a606"><path d="M 531.269531 59.746094 L 638.023438 87.289062 L 617.972656 164.996094 L 511.21875 137.449219 Z M 531.269531 59.746094 " clip-rule="nonzero"/></clipPath><clipPath id="7778ce3219"><path d="M 574 124 L 594 124 L 594 142 L 574 142 Z M 574 124 " clip-rule="nonzero"/></clipPath><clipPath id="257c9cc22e"><path d="M 531.269531 59.746094 L 638.023438 87.289062 L 617.972656 164.996094 L 511.21875 137.449219 Z M 531.269531 59.746094 " clip-rule="nonzero"/></clipPath><clipPath id="d0b4d8559e"><path d="M 531.269531 59.746094 L 638.023438 87.289062 L 617.972656 164.996094 L 511.21875 137.449219 Z M 531.269531 59.746094 " clip-rule="nonzero"/></clipPath><clipPath id="6281e10fda"><path d="M 582 105 L 605 105 L 605 122 L 582 122 Z M 582 105 " clip-rule="nonzero"/></clipPath><clipPath id="6e99494ac1"><path d="M 531.269531 59.746094 L 638.023438 87.289062 L 617.972656 164.996094 L 511.21875 137.449219 Z M 531.269531 59.746094 " clip-rule="nonzero"/></clipPath><clipPath id="6f3a48374a"><path d="M 531.269531 59.746094 L 638.023438 87.289062 L 617.972656 164.996094 L 511.21875 137.449219 Z M 531.269531 59.746094 " clip-rule="nonzero"/></clipPath><clipPath id="03944f7cdf"><path d="M 555 73 L 588 73 L 588 92 L 555 92 Z M 555 73 " clip-rule="nonzero"/></clipPath><clipPath id="681d9d74f9"><path d="M 531.269531 59.746094 L 638.023438 87.289062 L 617.972656 164.996094 L 511.21875 137.449219 Z M 531.269531 59.746094 " clip-rule="nonzero"/></clipPath><clipPath id="13b7a9634b"><path d="M 531.269531 59.746094 L 638.023438 87.289062 L 617.972656 164.996094 L 511.21875 137.449219 Z M 531.269531 59.746094 " clip-rule="nonzero"/></clipPath><clipPath id="fd222f9c97"><path d="M 579 79 L 613 79 L 613 98 L 579 98 Z M 579 79 " clip-rule="nonzero"/></clipPath><clipPath id="05ca11fec7"><path d="M 531.269531 59.746094 L 638.023438 87.289062 L 617.972656 164.996094 L 511.21875 137.449219 Z M 531.269531 59.746094 " clip-rule="nonzero"/></clipPath><clipPath id="6d022bd732"><path d="M 531.269531 59.746094 L 638.023438 87.289062 L 617.972656 164.996094 L 511.21875 137.449219 Z M 531.269531 59.746094 " clip-rule="nonzero"/></clipPath></defs><g fill="#e6e6dd" fill-opacity="1"><g transform="translate(220.331011, 238.499984)"><g><path d="M 13.4375 0 L 13.4375 -83.28125 L 1.203125 -83.28125 L 1.203125 -103.078125 L 46.3125 -103.078125 L 46.3125 -83.28125 L 34.078125 -83.28125 L 34.078125 0 Z M 13.4375 0 "/></g></g></g><g fill="#e6e6dd" fill-opacity="1"><g transform="translate(267.851031, 238.499984)"><g><path d="M 4.5625 -103.078125 L 36.234375 -103.078125 C 41.273438 -103.078125 45.175781 -101.9375 47.9375 -99.65625 C 50.695312 -97.375 52.554688 -94.171875 53.515625 -90.046875 C 54.472656 -85.929688 54.953125 -80.675781 54.953125 -74.28125 C 54.953125 -68.4375 54.191406 -63.875 52.671875 -60.59375 C 51.160156 -57.320312 48.523438 -55.046875 44.765625 -53.765625 C 47.878906 -53.117188 50.132812 -51.554688 51.53125 -49.078125 C 52.9375 -46.597656 53.640625 -43.238281 53.640625 -39 L 53.40625 0 L 33.234375 0 L 33.234375 -40.3125 C 33.234375 -43.195312 32.671875 -45.039062 31.546875 -45.84375 C 30.429688 -46.644531 28.394531 -47.046875 25.4375 -47.046875 L 25.4375 0 L 4.5625 0 Z M 30.484375 -64.921875 C 33.359375 -64.921875 34.796875 -68.039062 34.796875 -74.28125 C 34.796875 -77 34.675781 -79.035156 34.4375 -80.390625 C 34.195312 -81.753906 33.753906 -82.695312 33.109375 -83.21875 C 32.472656 -83.738281 31.554688 -84 30.359375 -84 L 25.5625 -84 L 25.5625 -64.921875 Z M 30.484375 -64.921875 "/></g></g></g><g fill="#e6e6dd" fill-opacity="1"><g transform="translate(325.091056, 238.499984)"><g><path d="M 1.796875 0 L 11.765625 -103.078125 L 46.6875 -103.078125 L 56.515625 0 L 36.953125 0 L 35.515625 -16.6875 L 23.046875 -16.6875 L 21.84375 0 Z M 24.59375 -33.125 L 33.953125 -33.125 L 29.40625 -85.5625 L 28.4375 -85.5625 Z M 24.59375 -33.125 "/></g></g></g><g fill="#e6e6dd" fill-opacity="1"><g transform="translate(383.29108, 238.499984)"><g><path d="M 28.5625 0.953125 C 21.039062 0.953125 15.019531 -1.40625 10.5 -6.125 C 5.976562 -10.84375 3.71875 -17.320312 3.71875 -25.5625 L 3.71875 -73.078125 C 3.71875 -83.316406 5.753906 -91.035156 9.828125 -96.234375 C 13.910156 -101.441406 20.316406 -104.046875 29.046875 -104.046875 C 36.640625 -104.046875 42.753906 -101.960938 47.390625 -97.796875 C 52.035156 -93.640625 54.359375 -87.640625 54.359375 -79.796875 L 54.359375 -62.046875 L 33.84375 -62.046875 L 33.84375 -77.28125 C 33.84375 -80.238281 33.484375 -82.273438 32.765625 -83.390625 C 32.046875 -84.515625 30.804688 -85.078125 29.046875 -85.078125 C 27.203125 -85.078125 25.9375 -84.4375 25.25 -83.15625 C 24.570312 -81.875 24.234375 -79.992188 24.234375 -77.515625 L 24.234375 -25.796875 C 24.234375 -23.078125 24.632812 -21.097656 25.4375 -19.859375 C 26.238281 -18.617188 27.441406 -18 29.046875 -18 C 32.242188 -18 33.84375 -20.597656 33.84375 -25.796875 L 33.84375 -44.40625 L 54.59375 -44.40625 L 54.59375 -24.953125 C 54.59375 -7.679688 45.914062 0.953125 28.5625 0.953125 Z M 28.5625 0.953125 "/></g></g></g><g fill="#e6e6dd" fill-opacity="1"><g transform="translate(440.171107, 238.499984)"><g><path d="M 4.5625 0 L 4.5625 -103.078125 L 24.953125 -103.078125 L 24.953125 -61.796875 L 34.5625 -103.078125 L 55.3125 -103.078125 L 43.796875 -55.921875 L 57.71875 0 L 36.359375 0 L 25.078125 -49.921875 L 25.078125 0 Z M 4.5625 0 "/></g></g></g><g fill="#e6e6dd" fill-opacity="1"><g transform="translate(496.811141, 238.499984)"><g><path d="M 4.5625 0 L 4.5625 -103.078125 L 45.84375 -103.078125 L 45.84375 -83.15625 L 25.5625 -83.15625 L 25.5625 -63.125 L 45 -63.125 L 45 -43.6875 L 25.5625 -43.6875 L 25.5625 -20.046875 L 47.15625 -20.046875 L 47.15625 0 Z M 4.5625 0 "/></g></g></g><g fill="#e6e6dd" fill-opacity="1"><g transform="translate(546.251171, 238.499984)"><g><path d="M 4.5625 -103.078125 L 36.234375 -103.078125 C 41.273438 -103.078125 45.175781 -101.9375 47.9375 -99.65625 C 50.695312 -97.375 52.554688 -94.171875 53.515625 -90.046875 C 54.472656 -85.929688 54.953125 -80.675781 54.953125 -74.28125 C 54.953125 -68.4375 54.191406 -63.875 52.671875 -60.59375 C 51.160156 -57.320312 48.523438 -55.046875 44.765625 -53.765625 C 47.878906 -53.117188 50.132812 -51.554688 51.53125 -49.078125 C 52.9375 -46.597656 53.640625 -43.238281 53.640625 -39 L 53.40625 0 L 33.234375 0 L 33.234375 -40.3125 C 33.234375 -43.195312 32.671875 -45.039062 31.546875 -45.84375 C 30.429688 -46.644531 28.394531 -47.046875 25.4375 -47.046875 L 25.4375 0 L 4.5625 0 Z M 30.484375 -64.921875 C 33.359375 -64.921875 34.796875 -68.039062 34.796875 -74.28125 C 34.796875 -77 34.675781 -79.035156 34.4375 -80.390625 C 34.195312 -81.753906 33.753906 -82.695312 33.109375 -83.21875 C 32.472656 -83.738281 31.554688 -84 30.359375 -84 L 25.5625 -84 L 25.5625 -64.921875 Z M 30.484375 -64.921875 "/></g></g></g><g clip-path="url(#7cc1deb611)"><path fill="#e6e6dd" d="M 141.6875 135.949219 L 215.527344 135.949219 L 215.527344 238.917969 L 141.6875 238.917969 Z M 141.6875 135.949219 " fill-opacity="1" fill-rule="nonzero"/></g><g clip-path="url(#a5ac389b3e)"><g clip-path="url(#e2982bf8c3)"><g clip-path="url(#89395341a9)"><path fill="#ff5c00" d="M 621.363281 94.796875 C 621.363281 94.78125 621.359375 94.769531 621.359375 94.753906 C 621.359375 94.710938 621.355469 94.671875 621.351562 94.628906 C 621.347656 94.578125 621.339844 94.527344 621.328125 94.476562 C 621.320312 94.4375 621.308594 94.402344 621.296875 94.363281 C 621.28125 94.3125 621.265625 94.261719 621.242188 94.210938 C 621.234375 94.195312 621.230469 94.175781 621.222656 94.160156 C 621.214844 94.144531 621.199219 94.125 621.191406 94.105469 C 621.164062 94.0625 621.136719 94.015625 621.105469 93.972656 C 621.082031 93.941406 621.058594 93.910156 621.03125 93.878906 C 621 93.839844 620.964844 93.804688 620.925781 93.773438 C 620.898438 93.746094 620.867188 93.71875 620.835938 93.691406 C 620.792969 93.660156 620.746094 93.632812 620.699219 93.605469 C 620.667969 93.585938 620.640625 93.566406 620.605469 93.550781 C 620.550781 93.523438 620.492188 93.503906 620.433594 93.484375 C 620.40625 93.476562 620.382812 93.464844 620.359375 93.457031 L 606.628906 89.914062 C 606.457031 89.871094 606.28125 89.859375 606.105469 89.882812 C 605.929688 89.910156 605.765625 89.96875 605.613281 90.058594 C 605.460938 90.148438 605.332031 90.261719 605.222656 90.40625 C 605.117188 90.546875 605.042969 90.703125 604.996094 90.875 C 604.953125 91.046875 604.941406 91.222656 604.96875 91.398438 C 604.992188 91.574219 605.050781 91.738281 605.140625 91.890625 C 605.230469 92.042969 605.347656 92.175781 605.488281 92.28125 C 605.628906 92.386719 605.785156 92.464844 605.957031 92.507812 L 618.183594 95.664062 L 592.882812 155.558594 L 514.832031 135.417969 L 540.136719 75.523438 L 549.210938 77.867188 C 548.828125 80.058594 548.882812 82.140625 549.398438 83.816406 C 549.453125 83.984375 549.535156 84.140625 549.648438 84.277344 C 549.761719 84.414062 549.898438 84.523438 550.054688 84.605469 C 550.210938 84.6875 550.378906 84.738281 550.554688 84.753906 C 550.730469 84.769531 550.90625 84.753906 551.074219 84.699219 C 551.242188 84.648438 551.398438 84.566406 551.535156 84.453125 C 551.671875 84.339844 551.78125 84.203125 551.863281 84.046875 C 551.945312 83.890625 551.996094 83.722656 552.011719 83.546875 C 552.03125 83.371094 552.011719 83.195312 551.960938 83.027344 C 551.40625 81.234375 551.574219 78.636719 552.410156 76.078125 C 553.105469 73.941406 554.21875 72.015625 555.460938 70.789062 C 556.46875 69.796875 557.484375 69.339844 558.199219 69.570312 C 559.199219 69.898438 559.84375 71.640625 559.804688 73.910156 C 559.800781 74.089844 559.832031 74.261719 559.894531 74.425781 C 559.960938 74.589844 560.054688 74.738281 560.179688 74.863281 C 560.300781 74.992188 560.445312 75.09375 560.609375 75.164062 C 560.769531 75.234375 560.941406 75.269531 561.117188 75.273438 C 561.296875 75.277344 561.46875 75.246094 561.632812 75.179688 C 561.796875 75.117188 561.945312 75.019531 562.074219 74.898438 C 562.199219 74.773438 562.300781 74.632812 562.371094 74.46875 C 562.441406 74.304688 562.476562 74.136719 562.480469 73.957031 C 562.542969 70.34375 561.253906 67.75 559.027344 67.023438 C 557.304688 66.464844 555.371094 67.121094 553.582031 68.882812 C 552.019531 70.421875 550.699219 72.683594 549.863281 75.25 L 549.859375 75.265625 L 539.6875 72.640625 C 539.363281 72.558594 539.054688 72.589844 538.757812 72.738281 C 538.460938 72.886719 538.246094 73.113281 538.117188 73.417969 L 511.761719 135.804688 C 511.6875 135.984375 511.652344 136.171875 511.65625 136.367188 C 511.664062 136.5625 511.707031 136.746094 511.796875 136.921875 C 511.882812 137.09375 512 137.242188 512.152344 137.367188 C 512.300781 137.488281 512.472656 137.574219 512.660156 137.625 L 593.332031 158.4375 C 593.652344 158.523438 593.964844 158.492188 594.261719 158.34375 C 594.558594 158.195312 594.773438 157.96875 594.902344 157.664062 L 618.460938 101.898438 L 616.753906 156.375 L 602.390625 152.667969 C 602.21875 152.625 602.046875 152.613281 601.871094 152.636719 C 601.695312 152.664062 601.53125 152.71875 601.375 152.8125 C 601.222656 152.902344 601.09375 153.015625 600.988281 153.160156 C 600.878906 153.300781 600.804688 153.457031 600.761719 153.628906 C 600.714844 153.800781 600.707031 153.976562 600.730469 154.152344 C 600.753906 154.328125 600.8125 154.492188 600.902344 154.644531 C 600.992188 154.796875 601.109375 154.925781 601.25 155.035156 C 601.394531 155.140625 601.550781 155.21875 601.722656 155.261719 L 617.707031 159.386719 C 617.902344 159.4375 618.101562 159.441406 618.300781 159.402344 C 618.5 159.363281 618.683594 159.28125 618.84375 159.160156 C 619.007812 159.039062 619.136719 158.886719 619.230469 158.707031 C 619.324219 158.527344 619.375 158.332031 619.378906 158.128906 Z M 621.363281 94.796875 " fill-opacity="1" fill-rule="nonzero"/></g></g></g><g clip-path="url(#1cde2b884a)"><g clip-path="url(#23ab50f13f)"><g clip-path="url(#c4415ddcaa)"><path fill="#ff5c00" d="M 540.050781 117.164062 C 540.222656 117.210938 540.398438 117.21875 540.574219 117.195312 C 540.75 117.167969 540.914062 117.113281 541.066406 117.023438 C 541.21875 116.929688 541.351562 116.816406 541.457031 116.671875 C 541.5625 116.53125 541.640625 116.375 541.683594 116.203125 C 541.726562 116.03125 541.738281 115.855469 541.714844 115.679688 C 541.6875 115.503906 541.628906 115.339844 541.539062 115.1875 C 541.449219 115.035156 541.335938 114.90625 541.191406 114.796875 C 541.050781 114.691406 540.894531 114.617188 540.722656 114.570312 L 535.328125 113.179688 C 535.007812 113.097656 534.699219 113.128906 534.402344 113.277344 C 534.101562 113.421875 533.890625 113.648438 533.761719 113.957031 L 529.199219 124.75 C 529.125 124.929688 529.089844 125.117188 529.09375 125.3125 C 529.101562 125.507812 529.144531 125.691406 529.234375 125.867188 C 529.320312 126.039062 529.4375 126.1875 529.589844 126.3125 C 529.742188 126.433594 529.910156 126.519531 530.097656 126.570312 L 541.867188 129.605469 C 542.1875 129.6875 542.496094 129.65625 542.792969 129.507812 C 543.089844 129.363281 543.304688 129.136719 543.433594 128.832031 L 547.964844 118.113281 L 549.75 117.058594 C 549.898438 116.96875 550.027344 116.851562 550.132812 116.710938 C 550.238281 116.566406 550.3125 116.410156 550.355469 116.242188 C 550.398438 116.070312 550.40625 115.898438 550.382812 115.722656 C 550.355469 115.546875 550.300781 115.382812 550.210938 115.234375 C 550.121094 115.082031 550.003906 114.953125 549.863281 114.84375 C 549.722656 114.738281 549.566406 114.664062 549.398438 114.617188 C 549.226562 114.574219 549.054688 114.5625 548.878906 114.585938 C 548.703125 114.609375 548.539062 114.664062 548.386719 114.753906 L 539.179688 120.183594 L 538.886719 119.683594 C 538.796875 119.53125 538.679688 119.402344 538.539062 119.296875 C 538.394531 119.1875 538.238281 119.113281 538.066406 119.070312 C 537.894531 119.023438 537.71875 119.015625 537.542969 119.039062 C 537.367188 119.0625 537.203125 119.121094 537.050781 119.210938 C 536.898438 119.300781 536.769531 119.417969 536.660156 119.558594 C 536.554688 119.703125 536.480469 119.859375 536.433594 120.03125 C 536.390625 120.203125 536.378906 120.375 536.40625 120.554688 C 536.429688 120.730469 536.488281 120.894531 536.578125 121.046875 L 537.550781 122.695312 C 537.640625 122.847656 537.757812 122.980469 537.898438 123.085938 C 538.042969 123.191406 538.199219 123.269531 538.371094 123.3125 C 538.542969 123.355469 538.714844 123.367188 538.890625 123.34375 C 539.066406 123.316406 539.234375 123.257812 539.386719 123.167969 L 544.089844 120.394531 L 541.417969 126.722656 L 532.273438 124.363281 L 535.777344 116.0625 Z M 540.050781 117.164062 " fill-opacity="1" fill-rule="nonzero"/></g></g></g><g clip-path="url(#e9ac5fc5ad)"><g clip-path="url(#f32121def0)"><g clip-path="url(#f846e89bae)"><path fill="#ff5c00" d="M 556.273438 97.351562 C 556.089844 96.984375 555.800781 96.75 555.40625 96.648438 L 543.636719 93.609375 C 543.316406 93.527344 543.007812 93.558594 542.710938 93.707031 C 542.414062 93.855469 542.199219 94.082031 542.070312 94.386719 L 537.507812 105.183594 C 537.433594 105.363281 537.398438 105.546875 537.40625 105.742188 C 537.410156 105.9375 537.457031 106.121094 537.542969 106.296875 C 537.628906 106.472656 537.746094 106.621094 537.898438 106.742188 C 538.050781 106.867188 538.21875 106.953125 538.410156 107 L 550.175781 110.035156 C 550.496094 110.121094 550.808594 110.085938 551.105469 109.941406 C 551.402344 109.792969 551.617188 109.566406 551.746094 109.261719 L 556.304688 98.464844 C 556.464844 98.089844 556.453125 97.71875 556.273438 97.351562 Z M 549.726562 107.15625 L 540.582031 104.796875 L 544.089844 96.492188 L 553.234375 98.851562 Z M 549.726562 107.15625 " fill-opacity="1" fill-rule="nonzero"/></g></g></g><g clip-path="url(#b20e19c300)"><g clip-path="url(#5460ce6c9a)"><g clip-path="url(#200716f0c4)"><path fill="#ff5c00" d="M 552.722656 132.320312 L 564.488281 135.355469 C 564.808594 135.4375 565.121094 135.40625 565.417969 135.261719 C 565.714844 135.113281 565.929688 134.886719 566.058594 134.582031 L 570.617188 123.785156 C 570.695312 123.605469 570.726562 123.417969 570.722656 123.222656 C 570.71875 123.03125 570.671875 122.84375 570.585938 122.671875 C 570.5 122.496094 570.378906 122.347656 570.226562 122.222656 C 570.078125 122.101562 569.90625 122.015625 569.71875 121.96875 L 557.949219 118.929688 C 557.628906 118.847656 557.320312 118.878906 557.023438 119.027344 C 556.726562 119.175781 556.511719 119.402344 556.382812 119.707031 L 551.820312 130.5 C 551.746094 130.679688 551.710938 130.867188 551.71875 131.0625 C 551.722656 131.257812 551.769531 131.441406 551.855469 131.617188 C 551.941406 131.792969 552.058594 131.941406 552.210938 132.0625 C 552.363281 132.1875 552.53125 132.269531 552.722656 132.320312 Z M 558.402344 121.8125 L 567.546875 124.171875 L 564.039062 132.472656 L 554.894531 130.113281 Z M 558.402344 121.8125 " fill-opacity="1" fill-rule="nonzero"/></g></g></g><g clip-path="url(#5805a5464c)"><g clip-path="url(#2be0e050df)"><g clip-path="url(#7d3855a606)"><path fill="#ff5c00" d="M 574.367188 115.011719 L 578.925781 104.21875 C 579.003906 104.039062 579.039062 103.851562 579.03125 103.65625 C 579.027344 103.460938 578.980469 103.277344 578.894531 103.101562 C 578.808594 102.929688 578.6875 102.777344 578.539062 102.65625 C 578.386719 102.535156 578.214844 102.449219 578.027344 102.398438 L 566.261719 99.363281 C 565.941406 99.28125 565.628906 99.3125 565.332031 99.460938 C 565.035156 99.605469 564.820312 99.832031 564.691406 100.136719 L 560.132812 110.933594 C 560.054688 111.113281 560.019531 111.300781 560.027344 111.496094 C 560.03125 111.691406 560.078125 111.875 560.164062 112.050781 C 560.25 112.222656 560.371094 112.371094 560.519531 112.496094 C 560.671875 112.617188 560.84375 112.703125 561.03125 112.753906 L 572.796875 115.789062 C 573.121094 115.871094 573.429688 115.839844 573.726562 115.691406 C 574.023438 115.546875 574.238281 115.320312 574.367188 115.011719 Z M 563.203125 110.546875 L 566.710938 102.246094 L 575.855469 104.605469 L 572.347656 112.90625 Z M 563.203125 110.546875 " fill-opacity="1" fill-rule="nonzero"/></g></g></g><g clip-path="url(#7778ce3219)"><g clip-path="url(#257c9cc22e)"><g clip-path="url(#d0b4d8559e)"><path fill="#ff5c00" d="M 580.53125 124.84375 C 580.210938 124.761719 579.902344 124.792969 579.601562 124.941406 C 579.304688 125.085938 579.09375 125.3125 578.964844 125.617188 L 574.402344 136.414062 C 574.328125 136.59375 574.292969 136.78125 574.296875 136.976562 C 574.304688 137.171875 574.347656 137.355469 574.4375 137.53125 C 574.523438 137.703125 574.640625 137.851562 574.792969 137.976562 C 574.945312 138.097656 575.113281 138.183594 575.300781 138.234375 L 587.070312 141.269531 C 587.390625 141.351562 587.699219 141.320312 587.996094 141.171875 C 588.292969 141.027344 588.507812 140.800781 588.636719 140.496094 L 593.199219 129.699219 C 593.273438 129.519531 593.308594 129.332031 593.304688 129.136719 C 593.296875 128.945312 593.25 128.757812 593.164062 128.585938 C 593.078125 128.410156 592.960938 128.261719 592.808594 128.136719 C 592.65625 128.015625 592.488281 127.929688 592.300781 127.882812 Z M 586.621094 138.386719 L 577.476562 136.027344 L 580.980469 127.726562 L 590.125 130.085938 Z M 586.621094 138.386719 " fill-opacity="1" fill-rule="nonzero"/></g></g></g><g clip-path="url(#6281e10fda)"><g clip-path="url(#6e99494ac1)"><g clip-path="url(#6f3a48374a)"><path fill="#ff5c00" d="M 596.945312 120.925781 L 601.300781 110.613281 L 603.914062 109.074219 C 604.0625 108.984375 604.191406 108.867188 604.296875 108.726562 C 604.402344 108.582031 604.476562 108.425781 604.519531 108.253906 C 604.5625 108.085938 604.570312 107.914062 604.546875 107.738281 C 604.519531 107.5625 604.460938 107.398438 604.375 107.246094 C 604.285156 107.097656 604.167969 106.96875 604.027344 106.859375 C 603.886719 106.753906 603.730469 106.679688 603.5625 106.632812 C 603.390625 106.589844 603.21875 106.578125 603.042969 106.601562 C 602.867188 106.625 602.703125 106.679688 602.550781 106.765625 L 599.910156 108.324219 C 599.679688 108.390625 599.484375 108.507812 599.316406 108.675781 L 593.34375 112.199219 L 593.050781 111.703125 C 592.960938 111.550781 592.84375 111.417969 592.703125 111.3125 C 592.5625 111.207031 592.402344 111.132812 592.230469 111.085938 C 592.058594 111.042969 591.886719 111.03125 591.710938 111.058594 C 591.535156 111.082031 591.371094 111.140625 591.21875 111.230469 C 591.0625 111.320312 590.933594 111.4375 590.828125 111.578125 C 590.722656 111.71875 590.644531 111.875 590.601562 112.046875 C 590.554688 112.21875 590.546875 112.394531 590.570312 112.570312 C 590.597656 112.746094 590.652344 112.910156 590.742188 113.0625 L 591.71875 114.714844 C 591.808594 114.867188 591.921875 114.996094 592.066406 115.101562 C 592.207031 115.210938 592.363281 115.285156 592.535156 115.328125 C 592.707031 115.375 592.882812 115.382812 593.058594 115.359375 C 593.234375 115.335938 593.398438 115.277344 593.550781 115.1875 L 597.429688 112.898438 L 594.929688 118.820312 L 585.785156 116.460938 L 589.292969 108.15625 L 593.824219 109.328125 C 593.996094 109.371094 594.167969 109.378906 594.34375 109.355469 C 594.519531 109.332031 594.6875 109.273438 594.839844 109.183594 C 594.992188 109.09375 595.121094 108.976562 595.226562 108.835938 C 595.335938 108.691406 595.410156 108.535156 595.457031 108.363281 C 595.5 108.191406 595.507812 108.019531 595.484375 107.84375 C 595.460938 107.667969 595.402344 107.503906 595.3125 107.347656 C 595.222656 107.195312 595.105469 107.066406 594.964844 106.960938 C 594.820312 106.851562 594.664062 106.777344 594.492188 106.734375 L 588.839844 105.273438 C 588.519531 105.191406 588.210938 105.222656 587.914062 105.371094 C 587.617188 105.519531 587.402344 105.746094 587.273438 106.050781 L 582.710938 116.847656 C 582.636719 117.023438 582.601562 117.210938 582.609375 117.40625 C 582.613281 117.601562 582.660156 117.785156 582.746094 117.960938 C 582.832031 118.136719 582.949219 118.285156 583.101562 118.40625 C 583.253906 118.53125 583.421875 118.617188 583.613281 118.664062 L 595.378906 121.699219 C 595.699219 121.785156 596.007812 121.75 596.308594 121.605469 C 596.605469 121.457031 596.816406 121.230469 596.945312 120.925781 Z M 596.945312 120.925781 " fill-opacity="1" fill-rule="nonzero"/></g></g></g><g clip-path="url(#03944f7cdf)"><g clip-path="url(#681d9d74f9)"><g clip-path="url(#13b7a9634b)"><path fill="#ff5c00" d="M 574.5625 90.308594 C 574.613281 90.476562 574.695312 90.632812 574.808594 90.769531 C 574.921875 90.90625 575.058594 91.015625 575.214844 91.097656 C 575.371094 91.179688 575.539062 91.230469 575.714844 91.246094 C 575.890625 91.261719 576.066406 91.246094 576.234375 91.191406 C 576.40625 91.140625 576.558594 91.058594 576.695312 90.945312 C 576.832031 90.832031 576.941406 90.695312 577.023438 90.539062 C 577.109375 90.382812 577.15625 90.214844 577.175781 90.039062 C 577.191406 89.863281 577.171875 89.691406 577.121094 89.519531 C 576.570312 87.726562 576.738281 85.128906 577.570312 82.570312 C 578.265625 80.433594 579.378906 78.507812 580.625 77.28125 C 581.628906 76.289062 582.640625 75.84375 583.359375 76.0625 C 584.359375 76.390625 585.003906 78.132812 584.964844 80.402344 C 584.960938 80.582031 584.992188 80.753906 585.058594 80.917969 C 585.121094 81.082031 585.214844 81.230469 585.339844 81.359375 C 585.464844 81.484375 585.605469 81.585938 585.769531 81.65625 C 585.933594 81.726562 586.101562 81.761719 586.28125 81.765625 C 586.457031 81.769531 586.628906 81.738281 586.792969 81.671875 C 586.960938 81.609375 587.105469 81.515625 587.234375 81.390625 C 587.363281 81.265625 587.460938 81.125 587.53125 80.960938 C 587.601562 80.796875 587.640625 80.628906 587.640625 80.449219 C 587.707031 76.835938 586.414062 74.242188 584.1875 73.515625 C 582.464844 72.953125 580.53125 73.613281 578.742188 75.375 C 577.183594 76.914062 575.863281 79.175781 575.023438 81.742188 L 575.019531 81.757812 L 556.703125 77.035156 C 556.53125 76.988281 556.359375 76.980469 556.183594 77.003906 C 556.007812 77.027344 555.84375 77.085938 555.6875 77.175781 C 555.535156 77.265625 555.40625 77.382812 555.300781 77.523438 C 555.191406 77.667969 555.117188 77.824219 555.074219 77.996094 C 555.027344 78.167969 555.019531 78.339844 555.042969 78.515625 C 555.066406 78.691406 555.125 78.859375 555.214844 79.011719 C 555.304688 79.164062 555.421875 79.292969 555.5625 79.398438 C 555.707031 79.507812 555.863281 79.582031 556.035156 79.628906 L 574.371094 84.359375 C 573.988281 86.550781 574.042969 88.632812 574.5625 90.308594 Z M 574.5625 90.308594 " fill-opacity="1" fill-rule="nonzero"/></g></g></g><g clip-path="url(#fd222f9c97)"><g clip-path="url(#05ca11fec7)"><g clip-path="url(#6d022bd732)"><path fill="#ff5c00" d="M 610.125 86.894531 C 610.121094 87.074219 610.152344 87.246094 610.21875 87.410156 C 610.285156 87.574219 610.378906 87.722656 610.5 87.851562 C 610.625 87.976562 610.769531 88.078125 610.929688 88.148438 C 611.09375 88.21875 611.265625 88.257812 611.441406 88.257812 C 611.617188 88.261719 611.789062 88.230469 611.957031 88.164062 C 612.121094 88.101562 612.265625 88.007812 612.394531 87.882812 C 612.523438 87.761719 612.621094 87.617188 612.691406 87.453125 C 612.765625 87.289062 612.800781 87.121094 612.804688 86.941406 C 612.867188 83.328125 611.574219 80.734375 609.351562 80.007812 C 607.628906 79.449219 605.691406 80.105469 603.90625 81.867188 C 602.34375 83.40625 601.023438 85.667969 600.183594 88.234375 L 600.179688 88.25 L 581.304688 83.382812 C 581.132812 83.335938 580.960938 83.328125 580.785156 83.351562 C 580.609375 83.375 580.445312 83.433594 580.289062 83.523438 C 580.136719 83.613281 580.007812 83.730469 579.902344 83.871094 C 579.792969 84.015625 579.71875 84.171875 579.675781 84.34375 C 579.628906 84.515625 579.621094 84.6875 579.644531 84.867188 C 579.667969 85.042969 579.726562 85.207031 579.816406 85.359375 C 579.90625 85.511719 580.023438 85.640625 580.164062 85.75 C 580.308594 85.855469 580.464844 85.929688 580.636719 85.976562 L 599.53125 90.851562 C 599.148438 93.042969 599.207031 95.125 599.722656 96.800781 C 599.773438 96.972656 599.859375 97.125 599.972656 97.261719 C 600.085938 97.398438 600.21875 97.507812 600.378906 97.589844 C 600.535156 97.671875 600.699219 97.722656 600.878906 97.738281 C 601.054688 97.753906 601.226562 97.738281 601.398438 97.6875 C 601.566406 97.632812 601.71875 97.550781 601.855469 97.4375 C 601.992188 97.324219 602.101562 97.1875 602.1875 97.03125 C 602.269531 96.875 602.320312 96.707031 602.335938 96.53125 C 602.351562 96.355469 602.335938 96.183594 602.285156 96.011719 C 601.730469 94.21875 601.898438 91.621094 602.730469 89.0625 C 603.429688 86.925781 604.542969 85 605.785156 83.773438 C 606.792969 82.78125 607.808594 82.324219 608.519531 82.554688 C 609.519531 82.882812 610.164062 84.625 610.125 86.894531 Z M 610.125 86.894531 " fill-opacity="1" fill-rule="nonzero"/></g></g></g><g fill="#2b2b2b" fill-opacity="1"><g transform="translate(200.754329, 239.108803)"><g><path d="M 0 -2.1875 L -49.5 -2.1875 L -49.5 -22.015625 L -39.9375 -22.015625 L -39.9375 -12.28125 L -30.3125 -12.28125 L -30.3125 -21.609375 L -20.96875 -21.609375 L -20.96875 -12.28125 L -9.625 -12.28125 L -9.625 -22.640625 L 0 -22.640625 Z M 0 -2.1875 "/></g></g></g><g fill="#2b2b2b" fill-opacity="1"><g transform="translate(200.754329, 215.367777)"><g><path d="M 0 -6.734375 L -49.5625 -0.640625 L -49.5625 -10.078125 L -15.84375 -13.71875 L -49.5625 -16.9375 L -49.5625 -26.390625 L 0 -20.28125 Z M 0 -6.734375 "/></g></g></g><g fill="#2b2b2b" fill-opacity="1"><g transform="translate(200.754329, 188.342186)"><g><path d="M 0 -2.1875 L -49.5 -2.1875 L -49.5 -22.015625 L -39.9375 -22.015625 L -39.9375 -12.28125 L -30.3125 -12.28125 L -30.3125 -21.609375 L -20.96875 -21.609375 L -20.96875 -12.28125 L -9.625 -12.28125 L -9.625 -22.640625 L 0 -22.640625 Z M 0 -2.1875 "/></g></g></g><g fill="#2b2b2b" fill-opacity="1"><g transform="translate(200.754329, 164.601161)"><g><path d="M 0 -2.1875 L -49.5 -2.1875 L -49.5 -12.390625 L -25.8125 -16.9375 L -49.5 -16.9375 L -49.5 -26.5 L 0 -26.5 L 0 -16.828125 L -24.78125 -11.875 L 0 -11.875 Z M 0 -2.1875 "/></g></g></g></svg>