<svg xmlns="http://www.w3.org/2000/svg" xmlns:xlink="http://www.w3.org/1999/xlink" width="500" zoomAndPan="magnify" viewBox="0 0 375 149.999998" height="200" preserveAspectRatio="xMidYMid meet" version="1.0"><defs><g/><clipPath id="dd5a7f9efa"><path d="M 228.21875 66.664062 L 303.21875 66.664062 L 303.21875 83.164062 L 228.21875 83.164062 Z M 228.21875 66.664062 " clip-rule="nonzero"/></clipPath></defs><g fill="#000000" fill-opacity="1"><g transform="translate(74.827226, 82.223604)"><g><path d="M 2.003906 -2.070312 C 2.316406 -2.070312 2.5625 -2.210938 2.808594 -2.386719 C 3.757812 -3.160156 4.601562 -5.09375 5.023438 -6.214844 C 6.742188 -10.464844 8.5 -15.242188 9.625 -19.703125 C 9.90625 -20.933594 10.152344 -22.058594 10.1875 -23.285156 C 10.222656 -24.023438 10.117188 -24.691406 9.800781 -25.289062 C 9.484375 -25.957031 8.957031 -26.273438 8.253906 -26.273438 C 8.183594 -26.273438 8.113281 -26.273438 8.078125 -26.273438 C 8.007812 -26.238281 7.9375 -26.238281 7.867188 -26.238281 C 6.320312 -25.992188 4.847656 -24.128906 4.144531 -22.828125 C 4.039062 -22.65625 3.96875 -22.515625 3.898438 -22.339844 C 3.792969 -22.164062 3.6875 -22.023438 3.582031 -21.847656 C 1.933594 -19.457031 1.019531 -16.894531 0.492188 -14.085938 C 0.0703125 -11.835938 -0.0351562 -9.554688 0 -7.269531 C 0 -6.148438 0.140625 -3.933594 0.597656 -2.878906 C 0.914062 -2.210938 1.335938 -2.070312 2.003906 -2.070312 Z M 1.722656 -2.457031 C 1.582031 -2.457031 1.476562 -2.527344 1.40625 -2.667969 C 0.773438 -3.546875 0.632812 -6.390625 0.632812 -7.445312 C 0.597656 -9.625 0.738281 -11.765625 1.089844 -13.839844 C 1.300781 -14.785156 2.039062 -18.195312 2.667969 -18.824219 C 2.773438 -18.789062 2.84375 -18.753906 2.808594 -18.71875 C 2.773438 -18.648438 2.773438 -18.582031 2.808594 -18.511719 L 2.808594 -17.457031 C 2.914062 -16.929688 3.265625 -16.4375 3.828125 -16.4375 C 4.039062 -16.4375 4.214844 -16.507812 4.355469 -16.613281 C 4.460938 -16.648438 4.53125 -16.71875 4.566406 -16.753906 C 5.65625 -17.703125 6.566406 -18.683594 7.304688 -19.914062 C 7.375 -20.019531 7.445312 -20.160156 7.550781 -20.335938 C 7.585938 -20.511719 7.585938 -20.652344 7.515625 -20.757812 C 7.480469 -20.828125 7.410156 -20.863281 7.304688 -20.863281 C 7.234375 -20.863281 7.199219 -20.828125 7.164062 -20.792969 C 7.128906 -20.757812 7.128906 -20.757812 7.128906 -20.722656 C 7.09375 -20.6875 7.058594 -20.652344 7.023438 -20.617188 C 6.355469 -19.351562 5.445312 -18.335938 4.355469 -17.386719 C 4.179688 -17.210938 4.003906 -17.105469 3.757812 -16.964844 C 3.722656 -16.929688 3.6875 -16.929688 3.652344 -16.929688 C 3.511719 -16.929688 3.40625 -17 3.371094 -17.140625 C 3.265625 -17.386719 3.265625 -17.667969 3.300781 -17.984375 C 3.546875 -20.6875 4.355469 -22.691406 6.777344 -24.058594 C 6.8125 -24.09375 6.882812 -24.09375 6.953125 -24.128906 C 6.988281 -24.164062 7.058594 -24.199219 7.128906 -24.234375 C 7.128906 -24.339844 7.128906 -24.375 7.128906 -24.375 C 7.128906 -24.515625 6.953125 -24.550781 6.847656 -24.550781 C 6.742188 -24.550781 6.671875 -24.515625 6.566406 -24.480469 C 6.425781 -24.445312 6.320312 -24.410156 6.25 -24.410156 C 6.183594 -24.410156 6.113281 -24.445312 6.007812 -24.480469 C 6.113281 -24.585938 6.25 -24.691406 6.390625 -24.796875 C 6.53125 -24.867188 6.671875 -24.972656 6.777344 -25.078125 C 7.304688 -25.464844 7.761719 -25.710938 8.359375 -25.746094 C 9.0625 -25.746094 9.308594 -25.605469 9.554688 -24.902344 C 9.730469 -24.234375 9.765625 -23.671875 9.660156 -23.003906 C 9.519531 -21.636719 9.203125 -20.300781 8.816406 -19 C 7.65625 -14.679688 5.832031 -9.976562 4.144531 -5.796875 C 3.757812 -4.707031 3.160156 -3.476562 2.28125 -2.738281 C 2.175781 -2.632812 2.070312 -2.5625 1.96875 -2.527344 C 1.863281 -2.492188 1.792969 -2.457031 1.722656 -2.457031 Z M 1.722656 -2.457031 "/></g></g></g><g fill="#000000" fill-opacity="1"><g transform="translate(84.521091, 82.223604)"><g/></g></g><g fill="#000000" fill-opacity="1"><g transform="translate(93.301767, 82.223604)"><g><path d="M 5.09375 -2.246094 L 5.199219 -2.246094 C 5.410156 -2.28125 5.515625 -2.386719 5.515625 -2.5625 C 5.550781 -2.667969 5.550781 -2.808594 5.550781 -2.949219 C 5.550781 -3.054688 5.550781 -3.195312 5.550781 -3.300781 C 5.585938 -5.023438 5.691406 -6.777344 5.832031 -8.5 C 5.867188 -8.886719 6.042969 -9.167969 6.355469 -9.34375 C 10.535156 -12.046875 14.296875 -17.527344 15.3125 -22.445312 C 15.488281 -23.109375 15.558594 -23.8125 15.382812 -24.480469 C 15.207031 -25.21875 14.925781 -25.605469 14.472656 -25.605469 C 14.296875 -25.605469 14.015625 -25.535156 13.699219 -25.359375 C 13.417969 -25.253906 13.171875 -25.078125 12.925781 -24.902344 C 12.679688 -24.691406 12.46875 -24.480469 12.222656 -24.304688 C 8.535156 -20.722656 6.25 -15.171875 5.410156 -10.117188 L 5.339844 -9.625 C 5.234375 -9.378906 4.882812 -9.167969 4.601562 -9.167969 C 4.496094 -9.203125 4.425781 -9.308594 4.425781 -9.414062 C 4.425781 -9.519531 4.425781 -9.625 4.425781 -9.730469 C 4.390625 -9.871094 4.390625 -10.011719 4.390625 -10.152344 C 4.390625 -10.292969 4.390625 -10.429688 4.390625 -10.535156 C 4.390625 -12.960938 4.636719 -15.171875 5.058594 -17.351562 C 5.375 -19.070312 6.113281 -22.09375 6.566406 -23.917969 C 6.671875 -24.199219 6.707031 -24.480469 6.671875 -24.726562 C 6.671875 -24.867188 6.496094 -25.007812 6.390625 -24.972656 C 6.25 -24.972656 6.183594 -24.902344 6.183594 -24.761719 C 6.183594 -24.515625 6.148438 -24.269531 6.078125 -24.023438 C 6.007812 -23.777344 5.9375 -23.566406 5.902344 -23.320312 L 5.164062 -20.617188 C 4.144531 -16.964844 3.792969 -13.417969 3.792969 -9.625 C 3.792969 -8.746094 3.792969 -8.675781 2.914062 -8.570312 L 2.003906 -8.570312 C 0.984375 -8.710938 0.421875 -9.519531 0.667969 -10.535156 C 0.773438 -10.992188 0.949219 -11.414062 1.195312 -11.835938 C 1.476562 -12.257812 1.792969 -12.644531 2.175781 -13.03125 C 2.28125 -13.136719 2.28125 -13.207031 2.210938 -13.3125 C 2.105469 -13.417969 2.039062 -13.488281 1.933594 -13.453125 C 1.300781 -13.277344 0.351562 -11.800781 0.175781 -11.167969 C -0.246094 -10.046875 0.175781 -9.027344 1.265625 -8.464844 C 1.722656 -8.21875 2.246094 -8.078125 2.84375 -8.078125 C 2.949219 -8.078125 3.019531 -8.078125 3.125 -8.078125 C 3.230469 -8.078125 3.300781 -8.078125 3.40625 -8.113281 C 3.441406 -8.113281 3.476562 -8.113281 3.511719 -8.148438 C 3.546875 -8.148438 3.582031 -8.148438 3.617188 -8.148438 C 3.792969 -8.148438 3.863281 -8.007812 3.898438 -7.761719 C 3.933594 -7.375 3.96875 -7.023438 4.003906 -6.671875 C 4.039062 -6.285156 4.074219 -5.9375 4.109375 -5.550781 C 4.214844 -4.671875 4.320312 -3.792969 4.566406 -2.949219 C 4.601562 -2.703125 4.671875 -2.527344 4.777344 -2.421875 C 4.847656 -2.316406 4.953125 -2.246094 5.09375 -2.246094 Z M 4.742188 -5.339844 C 4.707031 -5.796875 4.671875 -6.214844 4.636719 -6.671875 C 4.601562 -7.128906 4.53125 -7.550781 4.496094 -8.007812 C 4.496094 -8.324219 4.636719 -8.5 4.953125 -8.570312 C 5.09375 -8.605469 5.164062 -8.570312 5.164062 -8.429688 C 5.199219 -8.359375 5.199219 -8.289062 5.199219 -8.21875 C 5.164062 -8.148438 5.164062 -8.078125 5.164062 -8.007812 L 5.058594 -6.285156 C 5.023438 -5.972656 5.023438 -5.65625 4.742188 -5.339844 Z M 6.183594 -10.082031 C 6.078125 -10.152344 6.042969 -10.257812 6.078125 -10.359375 C 6.113281 -10.464844 6.113281 -10.570312 6.148438 -10.675781 C 7.09375 -15.488281 9.378906 -21.25 13.242188 -24.375 C 13.523438 -24.621094 14.226562 -25.113281 14.609375 -25.113281 C 14.785156 -25.113281 14.890625 -24.972656 14.925781 -24.691406 C 14.960938 -24.65625 14.960938 -24.550781 14.960938 -24.445312 C 14.960938 -23.566406 14.925781 -22.792969 14.644531 -21.953125 C 13.207031 -17.351562 10.746094 -13.523438 6.953125 -10.535156 C 6.847656 -10.429688 6.777344 -10.359375 6.671875 -10.328125 C 6.601562 -10.292969 6.53125 -10.222656 6.460938 -10.1875 C 6.390625 -10.117188 6.320312 -10.082031 6.25 -10.082031 Z M 6.183594 -10.082031 "/></g></g></g><g fill="#000000" fill-opacity="1"><g transform="translate(106.578147, 82.223604)"><g><path d="M 1.757812 -2.070312 C 1.863281 -2.070312 1.933594 -2.070312 1.96875 -2.105469 C 2.070312 -2.140625 2.105469 -2.246094 2.105469 -2.386719 C 2.105469 -2.492188 2.070312 -2.597656 2.039062 -2.703125 L 1.96875 -2.773438 C 1.371094 -3.125 1.054688 -5.339844 0.949219 -6.183594 C 0.703125 -8.324219 0.5625 -10.464844 0.738281 -12.679688 C 0.84375 -13.242188 0.878906 -13.734375 1.125 -14.261719 C 2.703125 -17.492188 4.285156 -20.792969 5.375 -24.199219 C 5.445312 -24.445312 5.515625 -24.726562 5.585938 -24.972656 C 5.621094 -25.21875 5.691406 -25.464844 5.761719 -25.710938 C 5.796875 -26.027344 5.761719 -26.238281 5.65625 -26.414062 C 5.585938 -26.589844 5.480469 -26.695312 5.304688 -26.695312 C 5.199219 -26.695312 5.09375 -26.660156 4.988281 -26.589844 C 4.847656 -26.484375 4.742188 -26.34375 4.636719 -26.167969 C 4.53125 -25.992188 4.390625 -25.851562 4.285156 -25.675781 C 1.898438 -22.199219 0.773438 -18.125 0.316406 -14.015625 C 0.28125 -13.839844 0.210938 -13.664062 0.105469 -13.523438 C 0 -13.382812 -0.0351562 -13.207031 0.0351562 -13.03125 C 0.140625 -12.644531 0.140625 -12.257812 0.140625 -11.871094 L 0.140625 -10.082031 C 0.105469 -8.78125 0.175781 -7.480469 0.351562 -6.214844 C 0.5625 -4.988281 0.773438 -3.195312 1.40625 -2.246094 C 1.441406 -2.140625 1.582031 -2.070312 1.757812 -2.070312 Z M 1.300781 -16.050781 C 1.230469 -16.121094 1.230469 -16.261719 1.265625 -16.4375 C 1.863281 -19.667969 2.914062 -23.074219 4.988281 -25.746094 C 5.023438 -25.78125 5.058594 -25.78125 5.09375 -25.816406 C 5.128906 -25.851562 5.164062 -25.816406 5.199219 -25.78125 C 5.234375 -25.746094 5.234375 -25.710938 5.234375 -25.640625 C 4.355469 -22.375 2.984375 -19.351562 1.476562 -16.261719 C 1.441406 -16.226562 1.441406 -16.15625 1.441406 -16.121094 C 1.40625 -16.050781 1.371094 -16.015625 1.300781 -16.050781 Z M 1.300781 -16.050781 "/></g></g></g><g fill="#000000" fill-opacity="1"><g transform="translate(109.73919, 82.223604)"><g><path d="M 3.300781 -8.113281 C 3.40625 -8.113281 3.546875 -8.148438 3.6875 -8.21875 C 4.003906 -8.359375 4.285156 -8.570312 4.53125 -8.816406 C 4.707031 -8.992188 4.882812 -9.203125 5.058594 -9.378906 C 5.234375 -9.554688 5.410156 -9.730469 5.585938 -9.90625 C 6.113281 -10.5 6.636719 -11.097656 7.09375 -11.730469 C 7.550781 -12.363281 8.007812 -12.996094 8.464844 -13.59375 C 8.535156 -13.699219 8.570312 -13.769531 8.605469 -13.875 C 8.640625 -13.980469 8.640625 -14.085938 8.535156 -14.191406 C 8.5 -14.226562 8.464844 -14.226562 8.429688 -14.226562 C 8.359375 -14.226562 8.289062 -14.191406 8.253906 -14.15625 L 7.304688 -12.996094 C 6.917969 -12.503906 6.566406 -12.011719 6.214844 -11.554688 C 5.832031 -11.0625 5.445312 -10.605469 5.058594 -10.152344 C 4.847656 -9.871094 3.476562 -8.570312 3.230469 -8.570312 C 3.160156 -8.570312 3.125 -8.570312 3.089844 -8.605469 C 2.808594 -8.710938 2.84375 -8.992188 2.84375 -9.238281 C 2.808594 -9.941406 2.914062 -10.640625 3.054688 -11.34375 C 3.371094 -12.996094 3.96875 -14.503906 4.707031 -16.015625 C 4.8125 -16.226562 4.953125 -16.4375 5.058594 -16.648438 C 5.164062 -16.859375 5.304688 -17.070312 5.410156 -17.316406 C 5.515625 -17.5625 5.550781 -17.773438 5.445312 -17.949219 C 5.410156 -18.089844 5.234375 -18.160156 5.128906 -18.160156 C 5.058594 -18.160156 5.023438 -18.160156 4.988281 -18.125 C 4.742188 -17.949219 4.566406 -17.808594 4.390625 -17.5625 C 4.214844 -17.316406 4.039062 -17.105469 3.863281 -16.894531 C 3.6875 -16.648438 3.476562 -16.4375 3.300781 -16.191406 C 3.160156 -16.050781 3.054688 -15.980469 2.949219 -15.980469 L 2.808594 -16.015625 C 2.738281 -16.050781 2.632812 -16.050781 2.492188 -16.050781 C 1.40625 -16.050781 0.421875 -14.402344 0.105469 -13.453125 C 0 -13.207031 0 -12.960938 0.0351562 -12.644531 C 0.0703125 -12.292969 0.28125 -12.117188 0.597656 -12.117188 C 0.738281 -12.117188 0.878906 -12.152344 0.984375 -12.257812 C 1.160156 -12.433594 1.335938 -12.609375 1.511719 -12.820312 C 1.6875 -13.03125 1.828125 -13.242188 2.003906 -13.453125 C 2.28125 -13.839844 2.5625 -14.191406 2.84375 -14.574219 C 3.089844 -14.960938 3.371094 -15.3125 3.652344 -15.699219 C 3.722656 -15.875 3.828125 -15.980469 3.96875 -16.085938 C 4.003906 -16.121094 4.039062 -16.15625 4.074219 -16.15625 C 4.109375 -16.15625 4.144531 -16.121094 4.25 -16.085938 C 3.617188 -15.664062 2.773438 -12.398438 2.597656 -11.660156 C 2.421875 -10.921875 2.316406 -10.1875 2.351562 -9.449219 C 2.386719 -9.308594 2.386719 -9.167969 2.421875 -9.027344 C 2.421875 -8.886719 2.457031 -8.746094 2.527344 -8.640625 C 2.703125 -8.289062 2.949219 -8.113281 3.300781 -8.113281 Z M 0.667969 -12.855469 C 0.632812 -12.890625 0.597656 -12.960938 0.5625 -12.996094 L 0.597656 -13.136719 C 0.84375 -14.121094 1.511719 -15.066406 2.457031 -15.523438 C 2.527344 -15.558594 2.597656 -15.523438 2.632812 -15.488281 C 2.632812 -15.382812 2.632812 -15.347656 2.632812 -15.347656 L 2.003906 -14.402344 C 1.617188 -13.945312 1.265625 -13.453125 0.878906 -12.996094 C 0.84375 -12.960938 0.84375 -12.925781 0.808594 -12.925781 C 0.773438 -12.925781 0.703125 -12.890625 0.667969 -12.855469 Z M 0.667969 -12.855469 "/></g></g></g><g fill="#000000" fill-opacity="1"><g transform="translate(117.536428, 82.223604)"><g><path d="M 0.457031 -7.480469 C 0.632812 -7.480469 0.773438 -7.585938 0.808594 -7.796875 C 0.84375 -7.902344 0.914062 -8.078125 0.949219 -8.324219 C 1.160156 -9.238281 2.210938 -13.734375 2.878906 -14.191406 C 2.914062 -14.050781 2.949219 -13.910156 2.914062 -13.769531 C 2.878906 -13.628906 2.878906 -13.488281 2.878906 -13.382812 C 2.773438 -12.609375 2.808594 -11.800781 2.949219 -10.992188 C 3.054688 -10.464844 3.300781 -9.90625 3.898438 -9.90625 C 4.074219 -9.90625 4.214844 -9.941406 4.355469 -10.011719 C 5.621094 -10.816406 6.917969 -12.574219 7.761719 -13.804688 C 7.796875 -13.839844 7.832031 -13.910156 7.832031 -13.945312 C 7.867188 -14.050781 7.832031 -14.191406 7.726562 -14.296875 C 7.691406 -14.332031 7.65625 -14.332031 7.621094 -14.332031 C 7.550781 -14.332031 7.480469 -14.296875 7.410156 -14.226562 C 7.128906 -13.839844 6.847656 -13.488281 6.566406 -13.101562 C 6.113281 -12.46875 4.636719 -10.746094 3.933594 -10.394531 C 3.898438 -10.359375 3.863281 -10.359375 3.792969 -10.359375 C 3.6875 -10.359375 3.617188 -10.429688 3.582031 -10.570312 C 3.476562 -10.921875 3.40625 -11.238281 3.40625 -11.519531 C 3.300781 -12.785156 3.476562 -13.980469 3.652344 -15.207031 L 3.757812 -16.191406 C 3.757812 -16.402344 3.6875 -16.542969 3.582031 -16.648438 C 3.546875 -16.683594 3.511719 -16.71875 3.40625 -16.71875 C 3.300781 -16.71875 3.265625 -16.683594 3.230469 -16.648438 C 2.316406 -15.277344 1.230469 -11.941406 0.808594 -10.359375 L 0.597656 -9.660156 L 0.527344 -9.660156 C 0.457031 -9.730469 0.421875 -9.765625 0.421875 -9.765625 L 0.421875 -10.359375 C 0.597656 -12.46875 1.019531 -14.4375 1.863281 -16.402344 L 1.96875 -16.648438 C 1.96875 -16.789062 1.898438 -16.894531 1.757812 -16.964844 C 1.722656 -16.964844 1.722656 -16.964844 1.6875 -17 C 1.652344 -17 1.582031 -16.964844 1.476562 -16.859375 L 1.160156 -16.191406 C 0.738281 -15.171875 0.457031 -14.121094 0.210938 -13.03125 C -0.105469 -11.554688 -0.246094 -10.082031 -0.175781 -8.605469 C -0.175781 -8.324219 -0.175781 -8.078125 -0.0351562 -7.796875 C 0.0351562 -7.585938 0.210938 -7.480469 0.457031 -7.480469 Z M 0.457031 -7.480469 "/></g></g></g><g fill="#000000" fill-opacity="1"><g transform="translate(124.560968, 82.223604)"><g><path d="M 1.652344 -9.519531 C 1.828125 -9.519531 1.96875 -9.554688 2.140625 -9.625 C 3.898438 -10.222656 5.128906 -12.082031 6.007812 -13.628906 C 6.113281 -13.769531 6.148438 -13.910156 6.113281 -14.015625 C 6.113281 -14.15625 6.078125 -14.226562 5.972656 -14.261719 C 5.9375 -14.296875 5.902344 -14.296875 5.867188 -14.296875 C 5.796875 -14.296875 5.726562 -14.261719 5.691406 -14.15625 L 5.304688 -13.523438 C 4.601562 -12.222656 3.195312 -10.605469 1.828125 -10.152344 C 1.652344 -10.117188 1.511719 -10.082031 1.476562 -10.082031 C 0.984375 -10.082031 0.667969 -10.359375 0.492188 -10.886719 C 0.457031 -10.992188 0.457031 -11.097656 0.457031 -11.203125 C 0.457031 -11.308594 0.457031 -11.414062 0.421875 -11.519531 C 0.421875 -12.1875 0.667969 -13.523438 1.089844 -14.050781 C 1.160156 -13.945312 1.230469 -13.839844 1.300781 -13.734375 C 1.335938 -13.628906 1.40625 -13.523438 1.476562 -13.417969 C 1.546875 -13.277344 1.652344 -13.207031 1.828125 -13.207031 C 1.898438 -13.207031 1.96875 -13.207031 2.003906 -13.242188 C 2.5625 -13.488281 3.265625 -14.367188 3.300781 -15.03125 C 3.335938 -15.628906 2.984375 -16.050781 2.457031 -16.050781 C 0.914062 -16.050781 -0.0703125 -13.277344 -0.0703125 -11.871094 C -0.105469 -10.992188 0.210938 -10.328125 0.914062 -9.800781 C 1.160156 -9.625 1.40625 -9.519531 1.652344 -9.519531 Z M 1.792969 -13.839844 C 1.722656 -13.910156 1.6875 -13.945312 1.6875 -13.910156 C 1.652344 -14.015625 1.582031 -14.121094 1.476562 -14.191406 C 1.371094 -14.226562 1.300781 -14.332031 1.335938 -14.4375 C 1.371094 -14.714844 1.546875 -14.890625 1.792969 -15.066406 C 2.039062 -15.3125 2.316406 -15.453125 2.5625 -15.488281 C 2.808594 -15.523438 2.878906 -15.453125 2.84375 -15.207031 C 2.738281 -14.679688 2.386719 -14.226562 1.792969 -13.839844 Z M 1.792969 -13.839844 "/></g></g></g><g fill="#000000" fill-opacity="1"><g transform="translate(129.86449, 82.223604)"><g><path d="M -2.984375 3.476562 C -2.808594 3.476562 -2.667969 3.40625 -2.527344 3.230469 C -0.84375 1.546875 0.316406 -3.933594 0.703125 -6.355469 C 0.773438 -7.023438 0.984375 -7.691406 1.335938 -8.289062 C 2.175781 -9.800781 3.089844 -11.203125 4.039062 -12.644531 C 4.285156 -13.03125 4.496094 -13.417969 4.742188 -13.839844 C 4.742188 -13.945312 4.566406 -14.191406 4.460938 -14.226562 C 4.355469 -14.261719 4.285156 -14.191406 4.179688 -14.085938 C 4.179688 -14.085938 4.179688 -14.050781 4.144531 -14.015625 C 3.757812 -13.417969 3.371094 -12.785156 2.984375 -12.1875 C 2.597656 -11.589844 2.175781 -10.957031 1.792969 -10.359375 C 1.6875 -10.1875 1.617188 -10.046875 1.546875 -9.90625 C 1.476562 -9.730469 1.371094 -9.589844 1.195312 -9.484375 C 1.054688 -9.660156 1.019531 -9.871094 1.089844 -10.046875 C 1.160156 -10.222656 1.160156 -10.394531 1.125 -10.570312 C 1.089844 -10.675781 1.089844 -10.816406 1.125 -10.921875 C 1.125 -11.027344 1.125 -11.132812 1.125 -11.238281 C 1.160156 -12.117188 1.125 -12.960938 0.984375 -13.699219 C 0.949219 -14.085938 0.878906 -14.503906 0.808594 -14.890625 C 0.738281 -15.277344 0.667969 -15.664062 0.632812 -16.050781 C 0.597656 -16.15625 0.527344 -16.226562 0.492188 -16.261719 C 0.457031 -16.332031 0.386719 -16.332031 0.351562 -16.296875 C 0.28125 -16.296875 0.246094 -16.261719 0.246094 -16.226562 C 0.140625 -15.980469 0.246094 -15.734375 0.28125 -15.488281 C 0.527344 -14.332031 0.632812 -13.136719 0.597656 -11.976562 C 0.597656 -10.851562 0.421875 -8.042969 0 -7.09375 C -1.230469 -4.636719 -2.949219 -0.808594 -3.511719 1.863281 C -3.617188 2.246094 -3.652344 2.632812 -3.617188 3.019531 C -3.617188 3.195312 -3.511719 3.335938 -3.335938 3.40625 C -3.160156 3.441406 -3.019531 3.476562 -2.984375 3.476562 Z M -2.914062 2.527344 C -2.914062 2.140625 -2.84375 1.792969 -2.738281 1.476562 C -2.667969 1.160156 -2.003906 -0.773438 -1.652344 -1.828125 C -1.371094 -2.597656 -0.667969 -4.496094 -0.386719 -4.496094 C -0.386719 -3.054688 -1.792969 1.40625 -2.914062 2.527344 Z M -0.175781 -17.351562 C -0.0703125 -17.351562 -0.0351562 -17.421875 -0.0351562 -17.5625 C -0.140625 -18.054688 -0.28125 -18.546875 -0.386719 -19.070312 C -0.492188 -19.597656 -0.632812 -20.089844 -0.808594 -20.617188 C -0.84375 -20.757812 -0.914062 -20.863281 -1.019531 -20.96875 C -1.054688 -21.003906 -1.125 -21.003906 -1.230469 -21.003906 C -1.265625 -21.003906 -1.300781 -20.96875 -1.300781 -20.863281 L -1.089844 -19.984375 C -0.984375 -19.667969 -0.914062 -19.316406 -0.84375 -19 C -0.773438 -18.648438 -0.703125 -18.300781 -0.597656 -17.984375 C -0.5625 -17.878906 -0.527344 -17.773438 -0.527344 -17.667969 C -0.492188 -17.5625 -0.421875 -17.492188 -0.316406 -17.386719 C -0.28125 -17.386719 -0.28125 -17.386719 -0.28125 -17.386719 C -0.246094 -17.351562 -0.210938 -17.351562 -0.175781 -17.351562 Z M -0.175781 -17.351562 "/></g></g></g><g fill="#000000" fill-opacity="1"><g transform="translate(133.798232, 82.223604)"><g><path d="M 3.300781 -8.113281 C 3.40625 -8.113281 3.546875 -8.148438 3.6875 -8.21875 C 4.003906 -8.359375 4.285156 -8.570312 4.53125 -8.816406 C 4.707031 -8.992188 4.882812 -9.203125 5.058594 -9.378906 C 5.234375 -9.554688 5.410156 -9.730469 5.585938 -9.90625 C 6.113281 -10.5 6.636719 -11.097656 7.09375 -11.730469 C 7.550781 -12.363281 8.007812 -12.996094 8.464844 -13.59375 C 8.535156 -13.699219 8.570312 -13.769531 8.605469 -13.875 C 8.640625 -13.980469 8.640625 -14.085938 8.535156 -14.191406 C 8.5 -14.226562 8.464844 -14.226562 8.429688 -14.226562 C 8.359375 -14.226562 8.289062 -14.191406 8.253906 -14.15625 L 7.304688 -12.996094 C 6.917969 -12.503906 6.566406 -12.011719 6.214844 -11.554688 C 5.832031 -11.0625 5.445312 -10.605469 5.058594 -10.152344 C 4.847656 -9.871094 3.476562 -8.570312 3.230469 -8.570312 C 3.160156 -8.570312 3.125 -8.570312 3.089844 -8.605469 C 2.808594 -8.710938 2.84375 -8.992188 2.84375 -9.238281 C 2.808594 -9.941406 2.914062 -10.640625 3.054688 -11.34375 C 3.371094 -12.996094 3.96875 -14.503906 4.707031 -16.015625 C 4.8125 -16.226562 4.953125 -16.4375 5.058594 -16.648438 C 5.164062 -16.859375 5.304688 -17.070312 5.410156 -17.316406 C 5.515625 -17.5625 5.550781 -17.773438 5.445312 -17.949219 C 5.410156 -18.089844 5.234375 -18.160156 5.128906 -18.160156 C 5.058594 -18.160156 5.023438 -18.160156 4.988281 -18.125 C 4.742188 -17.949219 4.566406 -17.808594 4.390625 -17.5625 C 4.214844 -17.316406 4.039062 -17.105469 3.863281 -16.894531 C 3.6875 -16.648438 3.476562 -16.4375 3.300781 -16.191406 C 3.160156 -16.050781 3.054688 -15.980469 2.949219 -15.980469 L 2.808594 -16.015625 C 2.738281 -16.050781 2.632812 -16.050781 2.492188 -16.050781 C 1.40625 -16.050781 0.421875 -14.402344 0.105469 -13.453125 C 0 -13.207031 0 -12.960938 0.0351562 -12.644531 C 0.0703125 -12.292969 0.28125 -12.117188 0.597656 -12.117188 C 0.738281 -12.117188 0.878906 -12.152344 0.984375 -12.257812 C 1.160156 -12.433594 1.335938 -12.609375 1.511719 -12.820312 C 1.6875 -13.03125 1.828125 -13.242188 2.003906 -13.453125 C 2.28125 -13.839844 2.5625 -14.191406 2.84375 -14.574219 C 3.089844 -14.960938 3.371094 -15.3125 3.652344 -15.699219 C 3.722656 -15.875 3.828125 -15.980469 3.96875 -16.085938 C 4.003906 -16.121094 4.039062 -16.15625 4.074219 -16.15625 C 4.109375 -16.15625 4.144531 -16.121094 4.25 -16.085938 C 3.617188 -15.664062 2.773438 -12.398438 2.597656 -11.660156 C 2.421875 -10.921875 2.316406 -10.1875 2.351562 -9.449219 C 2.386719 -9.308594 2.386719 -9.167969 2.421875 -9.027344 C 2.421875 -8.886719 2.457031 -8.746094 2.527344 -8.640625 C 2.703125 -8.289062 2.949219 -8.113281 3.300781 -8.113281 Z M 0.667969 -12.855469 C 0.632812 -12.890625 0.597656 -12.960938 0.5625 -12.996094 L 0.597656 -13.136719 C 0.84375 -14.121094 1.511719 -15.066406 2.457031 -15.523438 C 2.527344 -15.558594 2.597656 -15.523438 2.632812 -15.488281 C 2.632812 -15.382812 2.632812 -15.347656 2.632812 -15.347656 L 2.003906 -14.402344 C 1.617188 -13.945312 1.265625 -13.453125 0.878906 -12.996094 C 0.84375 -12.960938 0.84375 -12.925781 0.808594 -12.925781 C 0.773438 -12.925781 0.703125 -12.890625 0.667969 -12.855469 Z M 0.667969 -12.855469 "/></g></g></g><g fill="#000000" fill-opacity="1"><g transform="translate(141.59547, 82.223604)"><g><path d="M 0.492188 -7.09375 C 0.773438 -7.058594 0.914062 -7.234375 1.054688 -7.480469 L 1.265625 -8.007812 C 1.511719 -8.570312 1.6875 -9.097656 1.863281 -9.660156 C 2.246094 -10.851562 3.792969 -15.699219 4.566406 -16.085938 L 4.460938 -15.453125 C 4.390625 -15.207031 4.320312 -14.925781 4.25 -14.679688 C 4.144531 -14.402344 4.074219 -14.121094 4.003906 -13.875 C 3.828125 -13.03125 3.617188 -12.222656 3.582031 -11.34375 C 3.546875 -11.167969 3.546875 -10.992188 3.582031 -10.78125 C 3.582031 -10.5 3.792969 -10.359375 4.039062 -10.257812 C 4.074219 -10.257812 4.074219 -10.257812 4.109375 -10.257812 C 4.109375 -10.222656 4.109375 -10.222656 4.144531 -10.222656 C 4.320312 -10.222656 4.425781 -10.328125 4.53125 -10.5 C 4.707031 -10.746094 4.882812 -10.992188 5.023438 -11.238281 L 6.042969 -13.03125 C 6.078125 -13.171875 6.214844 -13.242188 6.390625 -13.242188 L 6.285156 -12.257812 C 6.25 -11.835938 6.25 -11.378906 6.390625 -10.957031 C 6.566406 -10.5 6.847656 -10.257812 7.269531 -10.257812 C 7.796875 -10.257812 11.273438 -13.101562 11.449219 -13.910156 C 11.484375 -14.015625 11.484375 -14.085938 11.378906 -14.191406 C 11.34375 -14.226562 11.273438 -14.261719 11.203125 -14.261719 C 11.167969 -14.261719 11.132812 -14.261719 11.097656 -14.226562 C 10.921875 -14.085938 10.78125 -13.980469 10.640625 -13.839844 C 10.117188 -13.277344 9.589844 -12.714844 9.027344 -12.1875 C 8.640625 -11.730469 8.183594 -11.34375 7.726562 -11.027344 C 7.621094 -10.992188 7.550781 -10.921875 7.480469 -10.886719 C 7.375 -10.816406 7.269531 -10.78125 7.164062 -10.78125 C 7.023438 -10.78125 6.917969 -10.816406 6.882812 -10.921875 C 6.847656 -11.167969 6.8125 -11.308594 6.8125 -11.554688 L 6.917969 -13.3125 C 6.917969 -13.417969 6.917969 -13.488281 6.953125 -13.59375 C 6.953125 -13.699219 6.953125 -13.769531 6.917969 -13.875 C 6.882812 -14.085938 6.742188 -14.226562 6.566406 -14.296875 L 6.425781 -14.332031 C 6.320312 -14.332031 6.214844 -14.261719 6.078125 -14.121094 C 6.007812 -14.015625 5.9375 -13.910156 5.867188 -13.839844 C 5.761719 -13.734375 5.691406 -13.628906 5.65625 -13.523438 C 5.375 -13.066406 5.128906 -12.609375 4.882812 -12.152344 C 4.777344 -11.976562 4.671875 -11.835938 4.601562 -11.660156 C 4.53125 -11.484375 4.390625 -11.34375 4.214844 -11.238281 C 4.144531 -11.203125 4.109375 -11.273438 4.144531 -11.449219 C 4.179688 -11.625 4.214844 -11.941406 4.25 -12.363281 C 4.285156 -12.398438 4.285156 -12.433594 4.285156 -12.46875 C 4.53125 -13.839844 4.882812 -15.136719 5.339844 -16.4375 C 5.375 -16.613281 5.445312 -16.753906 5.480469 -16.929688 C 5.515625 -17.070312 5.585938 -17.210938 5.621094 -17.386719 C 5.691406 -17.597656 5.65625 -17.808594 5.515625 -17.984375 C 5.445312 -18.054688 5.375 -18.089844 5.304688 -18.089844 C 5.234375 -18.089844 5.164062 -18.089844 5.128906 -18.054688 C 4.988281 -17.949219 4.882812 -17.84375 4.777344 -17.703125 C 2.949219 -14.925781 1.898438 -11.730469 0.808594 -8.605469 C 0.773438 -8.5 0.738281 -8.429688 0.703125 -8.359375 C 0.667969 -8.253906 0.597656 -8.183594 0.5625 -8.078125 C 0.5625 -8.042969 0.527344 -8.007812 0.421875 -8.007812 C 0.351562 -8.007812 0.316406 -8.042969 0.316406 -8.078125 C 0.28125 -8.253906 0.246094 -8.394531 0.246094 -8.5 C 0.175781 -9.730469 0.246094 -10.851562 0.492188 -11.941406 C 0.773438 -13.453125 1.863281 -16.648438 2.597656 -17.984375 C 2.632812 -18.125 2.632812 -18.300781 2.527344 -18.476562 C 2.492188 -18.511719 2.421875 -18.546875 2.386719 -18.546875 C 2.351562 -18.546875 2.316406 -18.546875 2.316406 -18.511719 C 2.28125 -18.441406 2.210938 -18.371094 2.175781 -18.335938 C 2.140625 -18.265625 2.070312 -18.195312 2.039062 -18.089844 C 1.160156 -16.296875 0.386719 -14.4375 -0.0703125 -12.46875 C -0.351562 -11.132812 -0.457031 -9.800781 -0.386719 -8.464844 C -0.351562 -8.148438 -0.316406 -7.867188 -0.210938 -7.585938 C -0.0703125 -7.269531 0.175781 -7.09375 0.492188 -7.09375 Z M 0.492188 -7.09375 "/></g></g></g><g fill="#000000" fill-opacity="1"><g transform="translate(152.237647, 82.223604)"><g><path d="M 1.652344 -9.519531 C 1.828125 -9.519531 1.96875 -9.554688 2.140625 -9.625 C 3.898438 -10.222656 5.128906 -12.082031 6.007812 -13.628906 C 6.113281 -13.769531 6.148438 -13.910156 6.113281 -14.015625 C 6.113281 -14.15625 6.078125 -14.226562 5.972656 -14.261719 C 5.9375 -14.296875 5.902344 -14.296875 5.867188 -14.296875 C 5.796875 -14.296875 5.726562 -14.261719 5.691406 -14.15625 L 5.304688 -13.523438 C 4.601562 -12.222656 3.195312 -10.605469 1.828125 -10.152344 C 1.652344 -10.117188 1.511719 -10.082031 1.476562 -10.082031 C 0.984375 -10.082031 0.667969 -10.359375 0.492188 -10.886719 C 0.457031 -10.992188 0.457031 -11.097656 0.457031 -11.203125 C 0.457031 -11.308594 0.457031 -11.414062 0.421875 -11.519531 C 0.421875 -12.1875 0.667969 -13.523438 1.089844 -14.050781 C 1.160156 -13.945312 1.230469 -13.839844 1.300781 -13.734375 C 1.335938 -13.628906 1.40625 -13.523438 1.476562 -13.417969 C 1.546875 -13.277344 1.652344 -13.207031 1.828125 -13.207031 C 1.898438 -13.207031 1.96875 -13.207031 2.003906 -13.242188 C 2.5625 -13.488281 3.265625 -14.367188 3.300781 -15.03125 C 3.335938 -15.628906 2.984375 -16.050781 2.457031 -16.050781 C 0.914062 -16.050781 -0.0703125 -13.277344 -0.0703125 -11.871094 C -0.105469 -10.992188 0.210938 -10.328125 0.914062 -9.800781 C 1.160156 -9.625 1.40625 -9.519531 1.652344 -9.519531 Z M 1.792969 -13.839844 C 1.722656 -13.910156 1.6875 -13.945312 1.6875 -13.910156 C 1.652344 -14.015625 1.582031 -14.121094 1.476562 -14.191406 C 1.371094 -14.226562 1.300781 -14.332031 1.335938 -14.4375 C 1.371094 -14.714844 1.546875 -14.890625 1.792969 -15.066406 C 2.039062 -15.3125 2.316406 -15.453125 2.5625 -15.488281 C 2.808594 -15.523438 2.878906 -15.453125 2.84375 -15.207031 C 2.738281 -14.679688 2.386719 -14.226562 1.792969 -13.839844 Z M 1.792969 -13.839844 "/></g></g></g><g fill="#000000" fill-opacity="1"><g transform="translate(157.541173, 82.223604)"><g><path d="M 0.457031 -7.480469 C 0.632812 -7.480469 0.773438 -7.585938 0.808594 -7.796875 C 0.84375 -7.902344 0.914062 -8.078125 0.949219 -8.324219 C 1.160156 -9.238281 2.210938 -13.734375 2.878906 -14.191406 C 2.914062 -14.050781 2.949219 -13.910156 2.914062 -13.769531 C 2.878906 -13.628906 2.878906 -13.488281 2.878906 -13.382812 C 2.773438 -12.609375 2.808594 -11.800781 2.949219 -10.992188 C 3.054688 -10.464844 3.300781 -9.90625 3.898438 -9.90625 C 4.074219 -9.90625 4.214844 -9.941406 4.355469 -10.011719 C 5.621094 -10.816406 6.917969 -12.574219 7.761719 -13.804688 C 7.796875 -13.839844 7.832031 -13.910156 7.832031 -13.945312 C 7.867188 -14.050781 7.832031 -14.191406 7.726562 -14.296875 C 7.691406 -14.332031 7.65625 -14.332031 7.621094 -14.332031 C 7.550781 -14.332031 7.480469 -14.296875 7.410156 -14.226562 C 7.128906 -13.839844 6.847656 -13.488281 6.566406 -13.101562 C 6.113281 -12.46875 4.636719 -10.746094 3.933594 -10.394531 C 3.898438 -10.359375 3.863281 -10.359375 3.792969 -10.359375 C 3.6875 -10.359375 3.617188 -10.429688 3.582031 -10.570312 C 3.476562 -10.921875 3.40625 -11.238281 3.40625 -11.519531 C 3.300781 -12.785156 3.476562 -13.980469 3.652344 -15.207031 L 3.757812 -16.191406 C 3.757812 -16.402344 3.6875 -16.542969 3.582031 -16.648438 C 3.546875 -16.683594 3.511719 -16.71875 3.40625 -16.71875 C 3.300781 -16.71875 3.265625 -16.683594 3.230469 -16.648438 C 2.316406 -15.277344 1.230469 -11.941406 0.808594 -10.359375 L 0.597656 -9.660156 L 0.527344 -9.660156 C 0.457031 -9.730469 0.421875 -9.765625 0.421875 -9.765625 L 0.421875 -10.359375 C 0.597656 -12.46875 1.019531 -14.4375 1.863281 -16.402344 L 1.96875 -16.648438 C 1.96875 -16.789062 1.898438 -16.894531 1.757812 -16.964844 C 1.722656 -16.964844 1.722656 -16.964844 1.6875 -17 C 1.652344 -17 1.582031 -16.964844 1.476562 -16.859375 L 1.160156 -16.191406 C 0.738281 -15.171875 0.457031 -14.121094 0.210938 -13.03125 C -0.105469 -11.554688 -0.246094 -10.082031 -0.175781 -8.605469 C -0.175781 -8.324219 -0.175781 -8.078125 -0.0351562 -7.796875 C 0.0351562 -7.585938 0.210938 -7.480469 0.457031 -7.480469 Z M 0.457031 -7.480469 "/></g></g></g><g fill="#000000" fill-opacity="1"><g transform="translate(164.565716, 82.223604)"><g><path d="M 0.878906 -0.597656 C 1.300781 -0.597656 1.511719 -0.808594 1.511719 -1.230469 C 1.511719 -1.371094 1.441406 -1.476562 1.335938 -1.511719 C 1.300781 -1.511719 1.300781 -1.511719 1.300781 -1.546875 C 1.265625 -1.546875 1.265625 -1.546875 1.230469 -1.546875 C 1.160156 -1.546875 1.089844 -1.511719 1.054688 -1.441406 C 1.019531 -1.40625 0.984375 -1.335938 0.949219 -1.265625 C 0.914062 -1.195312 0.878906 -1.160156 0.773438 -1.160156 C 0.316406 -1.617188 0.0351562 -4.25 0.0351562 -4.917969 C -0.0703125 -7.269531 0 -9.554688 0.386719 -11.90625 C 0.527344 -12.433594 0.703125 -12.925781 0.949219 -13.453125 C 1.40625 -14.4375 1.863281 -15.382812 2.351562 -16.332031 C 2.808594 -17.28125 3.300781 -18.230469 3.792969 -19.210938 C 3.898438 -19.457031 4.074219 -19.5625 4.285156 -19.5625 C 4.320312 -19.5625 4.355469 -19.5625 4.390625 -19.5625 C 4.390625 -19.527344 4.425781 -19.527344 4.460938 -19.527344 C 5.902344 -19.28125 7.9375 -19.070312 9.449219 -19.070312 C 10.570312 -19.070312 11.730469 -19.175781 12.75 -19.703125 C 12.996094 -19.808594 13.03125 -20.089844 12.890625 -20.335938 C 12.855469 -20.40625 12.820312 -20.441406 12.75 -20.441406 C 12.714844 -20.441406 12.679688 -20.40625 12.644531 -20.371094 C 12.609375 -20.335938 12.539062 -20.300781 12.503906 -20.265625 C 12.398438 -20.230469 12.257812 -20.195312 12.152344 -20.160156 C 12.046875 -20.125 11.90625 -20.054688 11.800781 -20.019531 C 10.992188 -19.84375 10.1875 -19.738281 9.414062 -19.738281 C 9.308594 -19.738281 9.167969 -19.738281 9.0625 -19.738281 C 8.921875 -19.738281 8.78125 -19.738281 8.675781 -19.773438 C 8.148438 -19.808594 7.65625 -19.878906 7.164062 -19.914062 C 6.636719 -19.949219 6.148438 -19.984375 5.65625 -20.019531 C 5.550781 -20.054688 5.445312 -20.054688 5.339844 -20.054688 C 5.234375 -20.054688 5.09375 -20.089844 4.988281 -20.125 C 4.882812 -20.160156 4.777344 -20.160156 4.671875 -20.160156 C 4.566406 -20.160156 4.496094 -20.195312 4.390625 -20.300781 C 4.425781 -20.441406 4.460938 -20.582031 4.53125 -20.6875 C 4.566406 -20.792969 4.636719 -20.898438 4.671875 -21.003906 C 5.128906 -22.09375 5.550781 -23.109375 5.9375 -24.234375 C 5.972656 -24.410156 6.042969 -24.621094 6.113281 -24.832031 C 6.148438 -25.007812 6.183594 -25.21875 6.183594 -25.429688 C 6.214844 -25.675781 6.183594 -25.921875 6.078125 -26.132812 C 6.007812 -26.34375 5.867188 -26.449219 5.65625 -26.449219 C 4.460938 -26.449219 2.632812 -22.445312 2.140625 -21.109375 C 1.96875 -20.6875 1.898438 -20.546875 1.617188 -20.546875 C 1.476562 -20.546875 1.335938 -20.546875 1.230469 -20.582031 C 0.140625 -20.757812 -0.878906 -20.863281 -1.863281 -20.863281 C -3.617188 -20.863281 -6.917969 -20.582031 -8.359375 -19.597656 C -8.535156 -19.492188 -8.570312 -19.351562 -8.5 -19.175781 C -8.464844 -18.929688 -8.324219 -18.824219 -8.007812 -18.824219 C -7.832031 -18.824219 -7.726562 -18.894531 -7.691406 -19.035156 C -7.585938 -20.160156 -2.386719 -20.230469 -1.898438 -20.230469 C -1.335938 -20.230469 1.195312 -20.160156 1.546875 -19.808594 C 1.652344 -19.632812 1.582031 -19.492188 1.476562 -19.316406 C 0.527344 -16.085938 -0.140625 -13.101562 -0.457031 -9.730469 C -0.597656 -7.621094 -0.667969 -5.585938 -0.421875 -3.476562 C -0.316406 -2.808594 -0.210938 -2.28125 -0.0351562 -1.617188 C 0.0703125 -1.300781 0.140625 -1.019531 0.421875 -0.773438 C 0.527344 -0.667969 0.703125 -0.597656 0.878906 -0.597656 Z M 1.019531 -15.171875 C 1.019531 -15.171875 1.019531 -15.207031 0.984375 -15.242188 C 0.984375 -15.734375 1.6875 -18.441406 2.003906 -19.140625 C 2.039062 -19.175781 2.039062 -19.246094 2.070312 -19.316406 C 2.105469 -19.386719 2.105469 -19.457031 2.140625 -19.527344 C 2.210938 -19.703125 2.351562 -19.773438 2.527344 -19.773438 L 3.160156 -19.667969 C 3.195312 -19.667969 3.230469 -19.667969 3.230469 -19.632812 C 3.230469 -19.597656 3.230469 -19.597656 3.265625 -19.5625 L 3.265625 -19.421875 L 1.371094 -15.558594 L 1.160156 -15.207031 C 1.125 -15.171875 1.089844 -15.171875 1.019531 -15.171875 Z M 3.371094 -20.335938 C 3.125 -20.335938 2.984375 -20.335938 2.914062 -20.371094 C 2.632812 -20.40625 2.527344 -20.546875 2.632812 -20.828125 C 3.160156 -22.199219 3.722656 -23.460938 4.601562 -24.691406 C 4.847656 -25.078125 5.128906 -25.464844 5.515625 -25.746094 C 5.621094 -25.746094 5.65625 -25.746094 5.65625 -25.746094 C 5.691406 -25.746094 5.726562 -25.710938 5.726562 -25.640625 C 5.691406 -25.535156 5.691406 -25.394531 5.691406 -25.289062 C 5.691406 -25.148438 5.65625 -25.007812 5.621094 -24.902344 C 5.164062 -23.460938 4.601562 -22.09375 3.933594 -20.722656 C 3.828125 -20.476562 3.617188 -20.335938 3.371094 -20.335938 Z M 3.371094 -20.335938 "/></g></g></g><g fill="#000000" fill-opacity="1"><g transform="translate(167.551148, 82.223604)"><g><path d="M 0.0703125 -8.921875 C 0.210938 -8.921875 0.351562 -8.992188 0.457031 -9.097656 C 1.230469 -9.695312 2.140625 -12.011719 2.421875 -12.960938 C 2.492188 -13.242188 2.632812 -13.382812 2.808594 -13.382812 C 2.878906 -13.382812 2.949219 -13.382812 3.019531 -13.347656 C 4.003906 -13.347656 4.882812 -13.417969 5.832031 -13.804688 C 6.007812 -13.839844 6.042969 -13.945312 5.972656 -14.121094 C 5.9375 -14.226562 5.832031 -14.296875 5.65625 -14.296875 C 5.480469 -14.261719 5.339844 -14.191406 5.234375 -14.15625 C 4.636719 -13.910156 3.96875 -13.839844 3.300781 -13.804688 L 3.089844 -13.804688 C 2.773438 -13.804688 2.738281 -13.875 2.703125 -14.296875 C 2.667969 -14.574219 2.597656 -14.820312 2.457031 -14.996094 C 2.351562 -15.171875 2.246094 -15.242188 2.140625 -15.207031 C 1.933594 -15.171875 1.722656 -15.136719 1.511719 -15.101562 C 1.300781 -15.066406 1.125 -14.960938 0.949219 -14.785156 C -0.0351562 -13.558594 -0.667969 -12.152344 -0.84375 -10.605469 C -0.878906 -10.257812 -0.84375 -9.941406 -0.738281 -9.625 C -0.667969 -9.378906 -0.527344 -9.203125 -0.28125 -9.0625 C -0.140625 -8.957031 -0.0351562 -8.921875 0.0703125 -8.921875 Z M -0.175781 -9.554688 C -0.421875 -9.835938 -0.316406 -10.1875 -0.28125 -10.5 C -0.140625 -11.835938 0.351562 -13.066406 1.230469 -14.191406 C 1.265625 -14.226562 1.300781 -14.296875 1.40625 -14.332031 C 1.441406 -14.332031 1.511719 -14.296875 1.546875 -14.261719 C 2.070312 -13.734375 2.105469 -13.664062 1.863281 -12.960938 C 1.652344 -12.292969 0.527344 -9.554688 -0.175781 -9.554688 Z M 2.140625 -14.191406 C 1.96875 -14.191406 1.933594 -14.261719 1.96875 -14.4375 C 2.003906 -14.539062 2.070312 -14.609375 2.140625 -14.574219 C 2.175781 -14.574219 2.210938 -14.503906 2.210938 -14.402344 C 2.210938 -14.296875 2.175781 -14.226562 2.140625 -14.191406 Z M 2.140625 -14.191406 "/></g></g></g><g clip-path="url(#dd5a7f9efa)"><path fill="#000000" d="M 302.433594 66.675781 C 302.042969 66.675781 301.726562 66.992188 301.726562 67.386719 C 301.726562 67.492188 301.75 67.589844 301.792969 67.679688 L 288.21875 81.777344 L 230.765625 81.777344 C 230.648438 81.191406 230.128906 80.746094 229.507812 80.746094 C 228.796875 80.746094 228.21875 81.324219 228.21875 82.035156 C 228.21875 82.746094 228.796875 83.320312 229.507812 83.320312 C 230.128906 83.320312 230.648438 82.878906 230.765625 82.292969 L 288.4375 82.292969 L 302.160156 68.039062 C 302.246094 68.074219 302.335938 68.09375 302.433594 68.09375 C 302.824219 68.09375 303.140625 67.777344 303.140625 67.386719 C 303.140625 66.992188 302.824219 66.675781 302.433594 66.675781 Z M 229.507812 82.613281 C 229.1875 82.613281 228.925781 82.355469 228.925781 82.035156 C 228.925781 81.714844 229.1875 81.453125 229.507812 81.453125 C 229.828125 81.453125 230.085938 81.714844 230.085938 82.035156 C 230.085938 82.355469 229.824219 82.613281 229.507812 82.613281 Z M 229.507812 82.613281 " fill-opacity="1" fill-rule="nonzero"/></g><g fill="#000000" fill-opacity="1"><g transform="translate(176.88446, 72.229214)"><g><path d="M 4.140625 -0.375 C 4.398438 -0.4375 4.582031 -0.53125 4.6875 -0.65625 C 4.800781 -0.789062 4.859375 -0.96875 4.859375 -1.1875 L 4.90625 -3.703125 C 4.90625 -4.117188 4.8125 -4.441406 4.625 -4.671875 C 4.445312 -4.898438 4.191406 -5.015625 3.859375 -5.015625 C 3.585938 -5.015625 3.3125 -4.941406 3.03125 -4.796875 C 2.75 -4.660156 2.503906 -4.515625 2.296875 -4.359375 C 2.210938 -2.609375 2.171875 -1.566406 2.171875 -1.234375 C 2.171875 -0.972656 2.203125 -0.789062 2.265625 -0.6875 C 2.335938 -0.582031 2.460938 -0.53125 2.640625 -0.53125 C 2.734375 -0.53125 2.820312 -0.535156 2.90625 -0.546875 C 2.988281 -0.554688 3.046875 -0.5625 3.078125 -0.5625 L 3.109375 -0.5 L 2.984375 0.03125 C 2.910156 0.03125 2.765625 0.0234375 2.546875 0.015625 C 2.328125 0.00390625 2.09375 0 1.84375 0 C 1.625 0 1.378906 0.0078125 1.109375 0.03125 C 0.835938 0.0507812 0.660156 0.0664062 0.578125 0.078125 L 0.640625 -0.4375 C 0.890625 -0.476562 1.0625 -0.554688 1.15625 -0.671875 C 1.257812 -0.785156 1.3125 -0.957031 1.3125 -1.1875 L 1.3125 -4.28125 C 1.3125 -4.570312 1.265625 -4.773438 1.171875 -4.890625 C 1.085938 -5.003906 0.929688 -5.0625 0.703125 -5.0625 L 0.5625 -5.0625 L 0.515625 -5.109375 L 0.5625 -5.53125 C 0.925781 -5.582031 1.285156 -5.648438 1.640625 -5.734375 C 1.992188 -5.816406 2.222656 -5.867188 2.328125 -5.890625 L 2.40625 -5.796875 C 2.382812 -5.742188 2.359375 -5.632812 2.328125 -5.46875 C 2.296875 -5.300781 2.273438 -5.128906 2.265625 -4.953125 L 2.296875 -4.921875 C 3.253906 -5.554688 3.875 -5.875 4.15625 -5.875 C 4.6875 -5.875 5.109375 -5.726562 5.421875 -5.4375 C 5.734375 -5.144531 5.890625 -4.75 5.890625 -4.25 C 5.890625 -4.164062 5.863281 -3.773438 5.8125 -3.078125 C 5.75 -2.203125 5.71875 -1.585938 5.71875 -1.234375 C 5.71875 -0.992188 5.75 -0.816406 5.8125 -0.703125 C 5.882812 -0.585938 6 -0.53125 6.15625 -0.53125 C 6.25 -0.53125 6.335938 -0.535156 6.421875 -0.546875 C 6.503906 -0.554688 6.566406 -0.5625 6.609375 -0.5625 L 6.625 -0.5 L 6.53125 0.03125 C 6.445312 0.03125 6.300781 0.0234375 6.09375 0.015625 C 5.882812 0.00390625 5.648438 0 5.390625 0 C 5.171875 0 4.921875 0.0195312 4.640625 0.0625 C 4.359375 0.101562 4.175781 0.132812 4.09375 0.15625 Z M 4.140625 -0.375 "/></g></g></g><g fill="#000000" fill-opacity="1"><g transform="translate(183.832145, 72.229214)"><g><path d="M 4.71875 0.15625 C 4.03125 0.15625 3.65625 -0.1875 3.59375 -0.875 L 3.53125 -0.890625 C 3.226562 -0.585938 2.953125 -0.347656 2.703125 -0.171875 C 2.453125 0.00390625 2.265625 0.09375 2.140625 0.09375 C 1.671875 0.09375 1.28125 -0.0507812 0.96875 -0.34375 C 0.664062 -0.632812 0.515625 -1.007812 0.515625 -1.46875 C 0.515625 -1.71875 0.578125 -1.929688 0.703125 -2.109375 C 0.828125 -2.296875 0.988281 -2.421875 1.1875 -2.484375 L 3.59375 -3.140625 L 3.609375 -3.703125 C 3.609375 -4.117188 3.507812 -4.445312 3.3125 -4.6875 C 3.125 -4.925781 2.851562 -5.046875 2.5 -5.046875 C 2.257812 -5.046875 2.007812 -4.988281 1.75 -4.875 C 1.488281 -4.769531 1.226562 -4.613281 0.96875 -4.40625 L 0.90625 -4.453125 L 0.765625 -5 C 1.160156 -5.21875 1.554688 -5.414062 1.953125 -5.59375 C 2.359375 -5.78125 2.648438 -5.875 2.828125 -5.875 C 3.378906 -5.875 3.8125 -5.726562 4.125 -5.4375 C 4.4375 -5.15625 4.59375 -4.757812 4.59375 -4.25 C 4.59375 -4.0625 4.5625 -3.679688 4.5 -3.109375 C 4.40625 -2.171875 4.359375 -1.578125 4.359375 -1.328125 C 4.359375 -1.140625 4.40625 -0.992188 4.5 -0.890625 C 4.59375 -0.796875 4.71875 -0.75 4.875 -0.75 C 5.007812 -0.75 5.148438 -0.78125 5.296875 -0.84375 C 5.441406 -0.90625 5.554688 -0.976562 5.640625 -1.0625 L 5.8125 -0.859375 C 5.6875 -0.648438 5.523438 -0.445312 5.328125 -0.25 C 5.128906 -0.0507812 4.925781 0.0820312 4.71875 0.15625 Z M 2.359375 -0.765625 C 2.515625 -0.765625 2.703125 -0.820312 2.921875 -0.9375 C 3.140625 -1.050781 3.335938 -1.195312 3.515625 -1.375 L 3.578125 -2.65625 L 1.84375 -2.140625 C 1.601562 -2.066406 1.484375 -1.890625 1.484375 -1.609375 C 1.484375 -1.359375 1.566406 -1.15625 1.734375 -1 C 1.898438 -0.84375 2.109375 -0.765625 2.359375 -0.765625 Z M 2.359375 -0.765625 "/></g></g></g><g fill="#000000" fill-opacity="1"><g transform="translate(189.740212, 72.229214)"><g/></g></g><g fill="#000000" fill-opacity="1"><g transform="translate(192.250505, 72.229214)"><g><path d="M 0.640625 2.515625 C 0.816406 2.484375 0.945312 2.441406 1.03125 2.390625 C 1.125 2.335938 1.1875 2.253906 1.21875 2.140625 C 1.257812 2.023438 1.28125 1.84375 1.28125 1.59375 C 1.28125 1.238281 1.285156 0.9375 1.296875 0.6875 L 1.3125 -0.5 L 1.3125 -4.28125 C 1.3125 -4.570312 1.265625 -4.773438 1.171875 -4.890625 C 1.078125 -5.003906 0.914062 -5.0625 0.6875 -5.0625 L 0.546875 -5.0625 L 0.5 -5.109375 L 0.546875 -5.53125 C 0.910156 -5.582031 1.269531 -5.648438 1.625 -5.734375 C 1.988281 -5.816406 2.21875 -5.867188 2.3125 -5.890625 L 2.390625 -5.796875 C 2.378906 -5.753906 2.359375 -5.660156 2.328125 -5.515625 C 2.304688 -5.378906 2.285156 -5.242188 2.265625 -5.109375 L 2.3125 -5.015625 C 3.113281 -5.566406 3.601562 -5.84375 3.78125 -5.84375 C 4.269531 -5.84375 4.695312 -5.726562 5.0625 -5.5 C 5.4375 -5.28125 5.722656 -4.96875 5.921875 -4.5625 C 6.128906 -4.15625 6.234375 -3.691406 6.234375 -3.171875 C 6.234375 -2.566406 6.085938 -2.007812 5.796875 -1.5 C 5.515625 -1 5.128906 -0.597656 4.640625 -0.296875 C 4.160156 0.00390625 3.640625 0.15625 3.078125 0.15625 C 2.890625 0.15625 2.703125 0.144531 2.515625 0.125 C 2.335938 0.113281 2.21875 0.101562 2.15625 0.09375 L 2.171875 1.40625 C 2.171875 1.789062 2.207031 2.050781 2.28125 2.1875 C 2.363281 2.332031 2.523438 2.40625 2.765625 2.40625 L 3.1875 2.390625 L 3.21875 2.4375 L 3.125 2.921875 L 1.90625 2.921875 C 1.601562 2.921875 1.320312 2.929688 1.0625 2.953125 C 0.8125 2.972656 0.644531 2.988281 0.5625 3 Z M 3.4375 -0.546875 C 4 -0.546875 4.441406 -0.738281 4.765625 -1.125 C 5.097656 -1.507812 5.265625 -2.035156 5.265625 -2.703125 C 5.265625 -3.117188 5.1875 -3.5 5.03125 -3.84375 C 4.882812 -4.195312 4.679688 -4.472656 4.421875 -4.671875 C 4.171875 -4.878906 3.894531 -4.984375 3.59375 -4.984375 C 3.414062 -4.984375 3.203125 -4.925781 2.953125 -4.8125 C 2.710938 -4.695312 2.484375 -4.546875 2.265625 -4.359375 C 2.203125 -3.253906 2.171875 -2.0625 2.171875 -0.78125 C 2.335938 -0.71875 2.535156 -0.660156 2.765625 -0.609375 C 3.003906 -0.566406 3.226562 -0.546875 3.4375 -0.546875 Z M 3.4375 -0.546875 "/></g></g></g><g fill="#000000" fill-opacity="1"><g transform="translate(198.944626, 72.229214)"><g><path d="M 4.71875 0.15625 C 4.03125 0.15625 3.65625 -0.1875 3.59375 -0.875 L 3.53125 -0.890625 C 3.226562 -0.585938 2.953125 -0.347656 2.703125 -0.171875 C 2.453125 0.00390625 2.265625 0.09375 2.140625 0.09375 C 1.671875 0.09375 1.28125 -0.0507812 0.96875 -0.34375 C 0.664062 -0.632812 0.515625 -1.007812 0.515625 -1.46875 C 0.515625 -1.71875 0.578125 -1.929688 0.703125 -2.109375 C 0.828125 -2.296875 0.988281 -2.421875 1.1875 -2.484375 L 3.59375 -3.140625 L 3.609375 -3.703125 C 3.609375 -4.117188 3.507812 -4.445312 3.3125 -4.6875 C 3.125 -4.925781 2.851562 -5.046875 2.5 -5.046875 C 2.257812 -5.046875 2.007812 -4.988281 1.75 -4.875 C 1.488281 -4.769531 1.226562 -4.613281 0.96875 -4.40625 L 0.90625 -4.453125 L 0.765625 -5 C 1.160156 -5.21875 1.554688 -5.414062 1.953125 -5.59375 C 2.359375 -5.78125 2.648438 -5.875 2.828125 -5.875 C 3.378906 -5.875 3.8125 -5.726562 4.125 -5.4375 C 4.4375 -5.15625 4.59375 -4.757812 4.59375 -4.25 C 4.59375 -4.0625 4.5625 -3.679688 4.5 -3.109375 C 4.40625 -2.171875 4.359375 -1.578125 4.359375 -1.328125 C 4.359375 -1.140625 4.40625 -0.992188 4.5 -0.890625 C 4.59375 -0.796875 4.71875 -0.75 4.875 -0.75 C 5.007812 -0.75 5.148438 -0.78125 5.296875 -0.84375 C 5.441406 -0.90625 5.554688 -0.976562 5.640625 -1.0625 L 5.8125 -0.859375 C 5.6875 -0.648438 5.523438 -0.445312 5.328125 -0.25 C 5.128906 -0.0507812 4.925781 0.0820312 4.71875 0.15625 Z M 2.359375 -0.765625 C 2.515625 -0.765625 2.703125 -0.820312 2.921875 -0.9375 C 3.140625 -1.050781 3.335938 -1.195312 3.515625 -1.375 L 3.578125 -2.65625 L 1.84375 -2.140625 C 1.601562 -2.066406 1.484375 -1.890625 1.484375 -1.609375 C 1.484375 -1.359375 1.566406 -1.15625 1.734375 -1 C 1.898438 -0.84375 2.109375 -0.765625 2.359375 -0.765625 Z M 2.359375 -0.765625 "/></g></g></g><g fill="#000000" fill-opacity="1"><g transform="translate(204.852692, 72.229214)"><g><path d="M 0.390625 -0.375 C 0.628906 -0.4375 0.796875 -0.515625 0.890625 -0.609375 C 0.992188 -0.710938 1.054688 -0.835938 1.078125 -0.984375 C 1.097656 -1.128906 1.109375 -1.367188 1.109375 -1.703125 L 1.109375 -7.9375 C 1.109375 -8.195312 1.078125 -8.375 1.015625 -8.46875 C 0.953125 -8.5625 0.828125 -8.609375 0.640625 -8.609375 C 0.597656 -8.609375 0.503906 -8.597656 0.359375 -8.578125 L 0.3125 -8.609375 L 0.375 -9.03125 C 1.082031 -9.132812 1.707031 -9.257812 2.25 -9.40625 L 2.3125 -9.234375 C 2.21875 -9.085938 2.132812 -8.179688 2.0625 -6.515625 C 2 -4.859375 1.96875 -3.097656 1.96875 -1.234375 C 1.96875 -0.984375 2 -0.800781 2.0625 -0.6875 C 2.132812 -0.582031 2.25 -0.53125 2.40625 -0.53125 L 2.84375 -0.5625 L 2.875 -0.5 L 2.78125 0.03125 C 2.21875 0.0078125 1.835938 0 1.640625 0 C 1.359375 0 0.925781 0.0507812 0.34375 0.15625 Z M 0.390625 -0.375 "/></g></g></g><g fill="#000000" fill-opacity="1"><g transform="translate(207.946186, 72.229214)"><g><path d="M 4.125 -0.375 C 4.375 -0.4375 4.550781 -0.53125 4.65625 -0.65625 C 4.769531 -0.789062 4.828125 -0.96875 4.828125 -1.1875 L 4.875 -3.703125 C 4.875 -4.117188 4.78125 -4.441406 4.59375 -4.671875 C 4.414062 -4.898438 4.160156 -5.015625 3.828125 -5.015625 C 3.554688 -5.015625 3.28125 -4.941406 3 -4.796875 C 2.71875 -4.660156 2.472656 -4.515625 2.265625 -4.359375 C 2.191406 -2.609375 2.15625 -1.566406 2.15625 -1.234375 C 2.15625 -0.972656 2.1875 -0.789062 2.25 -0.6875 C 2.320312 -0.582031 2.441406 -0.53125 2.609375 -0.53125 C 2.703125 -0.53125 2.789062 -0.535156 2.875 -0.546875 C 2.957031 -0.554688 3.015625 -0.5625 3.046875 -0.5625 L 3.078125 -0.5 L 2.96875 0.03125 C 2.882812 0.03125 2.734375 0.0234375 2.515625 0.015625 C 2.296875 0.00390625 2.0625 0 1.8125 0 C 1.53125 0 1.269531 0.00390625 1.03125 0.015625 C 0.800781 0.0234375 0.644531 0.03125 0.5625 0.03125 L 0.640625 -0.5 C 0.878906 -0.519531 1.046875 -0.582031 1.140625 -0.6875 C 1.242188 -0.789062 1.296875 -0.957031 1.296875 -1.1875 L 1.296875 -4.28125 C 1.296875 -4.570312 1.25 -4.773438 1.15625 -4.890625 C 1.0625 -5.003906 0.898438 -5.0625 0.671875 -5.0625 L 0.53125 -5.0625 L 0.5 -5.109375 L 0.53125 -5.53125 C 0.894531 -5.582031 1.253906 -5.648438 1.609375 -5.734375 C 1.972656 -5.816406 2.207031 -5.867188 2.3125 -5.890625 L 2.375 -5.796875 C 2.363281 -5.742188 2.335938 -5.632812 2.296875 -5.46875 C 2.265625 -5.300781 2.25 -5.128906 2.25 -4.953125 L 2.265625 -4.921875 C 3.210938 -5.554688 3.832031 -5.875 4.125 -5.875 C 4.53125 -5.875 4.875 -5.785156 5.15625 -5.609375 C 5.4375 -5.441406 5.632812 -5.195312 5.75 -4.875 C 6.050781 -5.09375 6.390625 -5.3125 6.765625 -5.53125 C 7.148438 -5.757812 7.453125 -5.875 7.671875 -5.875 C 8.203125 -5.875 8.625 -5.726562 8.9375 -5.4375 C 9.25 -5.144531 9.40625 -4.75 9.40625 -4.25 C 9.40625 -4.164062 9.378906 -3.773438 9.328125 -3.078125 C 9.253906 -2.203125 9.21875 -1.585938 9.21875 -1.234375 C 9.21875 -0.972656 9.25 -0.789062 9.3125 -0.6875 C 9.382812 -0.582031 9.507812 -0.53125 9.6875 -0.53125 C 9.78125 -0.53125 9.867188 -0.535156 9.953125 -0.546875 C 10.035156 -0.554688 10.09375 -0.5625 10.125 -0.5625 L 10.15625 -0.5 L 10.03125 0.03125 C 9.957031 0.03125 9.8125 0.0234375 9.59375 0.015625 C 9.375 0.00390625 9.140625 0 8.890625 0 C 8.660156 0 8.410156 0.0078125 8.140625 0.03125 C 7.878906 0.0507812 7.707031 0.0664062 7.625 0.078125 L 7.6875 -0.4375 C 7.9375 -0.476562 8.109375 -0.554688 8.203125 -0.671875 C 8.304688 -0.785156 8.359375 -0.957031 8.359375 -1.1875 L 8.421875 -3.703125 C 8.421875 -4.117188 8.328125 -4.441406 8.140625 -4.671875 C 7.960938 -4.898438 7.703125 -5.015625 7.359375 -5.015625 C 6.921875 -5.015625 6.410156 -4.804688 5.828125 -4.390625 L 5.6875 -1.234375 C 5.6875 -0.992188 5.71875 -0.816406 5.78125 -0.703125 C 5.851562 -0.585938 5.972656 -0.53125 6.140625 -0.53125 C 6.222656 -0.53125 6.304688 -0.535156 6.390625 -0.546875 C 6.484375 -0.554688 6.546875 -0.5625 6.578125 -0.5625 L 6.609375 -0.5 L 6.5 0.03125 C 6.425781 0.03125 6.28125 0.0234375 6.0625 0.015625 C 5.851562 0.00390625 5.625 0 5.375 0 C 5.15625 0 4.898438 0.0195312 4.609375 0.0625 C 4.328125 0.101562 4.144531 0.132812 4.0625 0.15625 Z M 4.125 -0.375 "/></g></g></g><g fill="#000000" fill-opacity="1"><g transform="translate(218.494495, 72.229214)"><g><path d="M 4.71875 0.15625 C 4.03125 0.15625 3.65625 -0.1875 3.59375 -0.875 L 3.53125 -0.890625 C 3.226562 -0.585938 2.953125 -0.347656 2.703125 -0.171875 C 2.453125 0.00390625 2.265625 0.09375 2.140625 0.09375 C 1.671875 0.09375 1.28125 -0.0507812 0.96875 -0.34375 C 0.664062 -0.632812 0.515625 -1.007812 0.515625 -1.46875 C 0.515625 -1.71875 0.578125 -1.929688 0.703125 -2.109375 C 0.828125 -2.296875 0.988281 -2.421875 1.1875 -2.484375 L 3.59375 -3.140625 L 3.609375 -3.703125 C 3.609375 -4.117188 3.507812 -4.445312 3.3125 -4.6875 C 3.125 -4.925781 2.851562 -5.046875 2.5 -5.046875 C 2.257812 -5.046875 2.007812 -4.988281 1.75 -4.875 C 1.488281 -4.769531 1.226562 -4.613281 0.96875 -4.40625 L 0.90625 -4.453125 L 0.765625 -5 C 1.160156 -5.21875 1.554688 -5.414062 1.953125 -5.59375 C 2.359375 -5.78125 2.648438 -5.875 2.828125 -5.875 C 3.378906 -5.875 3.8125 -5.726562 4.125 -5.4375 C 4.4375 -5.15625 4.59375 -4.757812 4.59375 -4.25 C 4.59375 -4.0625 4.5625 -3.679688 4.5 -3.109375 C 4.40625 -2.171875 4.359375 -1.578125 4.359375 -1.328125 C 4.359375 -1.140625 4.40625 -0.992188 4.5 -0.890625 C 4.59375 -0.796875 4.71875 -0.75 4.875 -0.75 C 5.007812 -0.75 5.148438 -0.78125 5.296875 -0.84375 C 5.441406 -0.90625 5.554688 -0.976562 5.640625 -1.0625 L 5.8125 -0.859375 C 5.6875 -0.648438 5.523438 -0.445312 5.328125 -0.25 C 5.128906 -0.0507812 4.925781 0.0820312 4.71875 0.15625 Z M 2.359375 -0.765625 C 2.515625 -0.765625 2.703125 -0.820312 2.921875 -0.9375 C 3.140625 -1.050781 3.335938 -1.195312 3.515625 -1.375 L 3.578125 -2.65625 L 1.84375 -2.140625 C 1.601562 -2.066406 1.484375 -1.890625 1.484375 -1.609375 C 1.484375 -1.359375 1.566406 -1.15625 1.734375 -1 C 1.898438 -0.84375 2.109375 -0.765625 2.359375 -0.765625 Z M 2.359375 -0.765625 "/></g></g></g><g fill="#000000" fill-opacity="1"><g transform="translate(224.402561, 72.229214)"><g/></g></g><g fill="#000000" fill-opacity="1"><g transform="translate(226.912854, 72.229214)"><g><path d="M 5.703125 0.15625 C 5.046875 0.15625 4.671875 -0.144531 4.578125 -0.75 L 4.484375 -0.78125 C 3.609375 -0.1875 3.082031 0.109375 2.90625 0.109375 C 2.414062 0.109375 1.984375 0 1.609375 -0.21875 C 1.242188 -0.445312 0.957031 -0.765625 0.75 -1.171875 C 0.550781 -1.578125 0.453125 -2.039062 0.453125 -2.5625 C 0.453125 -3.15625 0.59375 -3.707031 0.875 -4.21875 C 1.164062 -4.726562 1.550781 -5.128906 2.03125 -5.421875 C 2.519531 -5.722656 3.046875 -5.875 3.609375 -5.875 C 3.878906 -5.875 4.171875 -5.859375 4.484375 -5.828125 L 4.484375 -7.9375 C 4.484375 -8.382812 4.328125 -8.609375 4.015625 -8.609375 C 3.953125 -8.609375 3.882812 -8.601562 3.8125 -8.59375 C 3.75 -8.582031 3.710938 -8.570312 3.703125 -8.5625 L 3.75 -9.03125 C 4.113281 -9.082031 4.488281 -9.148438 4.875 -9.234375 C 5.269531 -9.316406 5.519531 -9.375 5.625 -9.40625 L 5.703125 -9.234375 C 5.609375 -9.085938 5.523438 -8.195312 5.453125 -6.5625 C 5.378906 -4.925781 5.34375 -3.179688 5.34375 -1.328125 C 5.34375 -1.140625 5.390625 -0.992188 5.484375 -0.890625 C 5.578125 -0.796875 5.703125 -0.75 5.859375 -0.75 C 5.984375 -0.75 6.101562 -0.769531 6.21875 -0.8125 C 6.332031 -0.863281 6.425781 -0.914062 6.5 -0.96875 C 6.570312 -1.019531 6.613281 -1.050781 6.625 -1.0625 L 6.8125 -0.859375 C 6.78125 -0.816406 6.710938 -0.722656 6.609375 -0.578125 C 6.515625 -0.441406 6.382812 -0.296875 6.21875 -0.140625 C 6.050781 0.00390625 5.878906 0.101562 5.703125 0.15625 Z M 3.109375 -0.703125 C 3.285156 -0.703125 3.472656 -0.753906 3.671875 -0.859375 C 3.878906 -0.960938 4.054688 -1.066406 4.203125 -1.171875 C 4.347656 -1.273438 4.441406 -1.34375 4.484375 -1.375 L 4.484375 -4.859375 C 4.460938 -4.867188 4.398438 -4.894531 4.296875 -4.9375 C 4.191406 -4.988281 4.046875 -5.035156 3.859375 -5.078125 C 3.679688 -5.117188 3.476562 -5.140625 3.25 -5.140625 C 2.6875 -5.140625 2.242188 -4.945312 1.921875 -4.5625 C 1.597656 -4.175781 1.4375 -3.648438 1.4375 -2.984375 C 1.4375 -2.566406 1.507812 -2.179688 1.65625 -1.828125 C 1.800781 -1.484375 2 -1.207031 2.25 -1 C 2.507812 -0.800781 2.796875 -0.703125 3.109375 -0.703125 Z M 3.109375 -0.703125 "/></g></g></g><g fill="#000000" fill-opacity="1"><g transform="translate(233.721079, 72.229214)"><g><path d="M 4.71875 0.15625 C 4.03125 0.15625 3.65625 -0.1875 3.59375 -0.875 L 3.53125 -0.890625 C 3.226562 -0.585938 2.953125 -0.347656 2.703125 -0.171875 C 2.453125 0.00390625 2.265625 0.09375 2.140625 0.09375 C 1.671875 0.09375 1.28125 -0.0507812 0.96875 -0.34375 C 0.664062 -0.632812 0.515625 -1.007812 0.515625 -1.46875 C 0.515625 -1.71875 0.578125 -1.929688 0.703125 -2.109375 C 0.828125 -2.296875 0.988281 -2.421875 1.1875 -2.484375 L 3.59375 -3.140625 L 3.609375 -3.703125 C 3.609375 -4.117188 3.507812 -4.445312 3.3125 -4.6875 C 3.125 -4.925781 2.851562 -5.046875 2.5 -5.046875 C 2.257812 -5.046875 2.007812 -4.988281 1.75 -4.875 C 1.488281 -4.769531 1.226562 -4.613281 0.96875 -4.40625 L 0.90625 -4.453125 L 0.765625 -5 C 1.160156 -5.21875 1.554688 -5.414062 1.953125 -5.59375 C 2.359375 -5.78125 2.648438 -5.875 2.828125 -5.875 C 3.378906 -5.875 3.8125 -5.726562 4.125 -5.4375 C 4.4375 -5.15625 4.59375 -4.757812 4.59375 -4.25 C 4.59375 -4.0625 4.5625 -3.679688 4.5 -3.109375 C 4.40625 -2.171875 4.359375 -1.578125 4.359375 -1.328125 C 4.359375 -1.140625 4.40625 -0.992188 4.5 -0.890625 C 4.59375 -0.796875 4.71875 -0.75 4.875 -0.75 C 5.007812 -0.75 5.148438 -0.78125 5.296875 -0.84375 C 5.441406 -0.90625 5.554688 -0.976562 5.640625 -1.0625 L 5.8125 -0.859375 C 5.6875 -0.648438 5.523438 -0.445312 5.328125 -0.25 C 5.128906 -0.0507812 4.925781 0.0820312 4.71875 0.15625 Z M 2.359375 -0.765625 C 2.515625 -0.765625 2.703125 -0.820312 2.921875 -0.9375 C 3.140625 -1.050781 3.335938 -1.195312 3.515625 -1.375 L 3.578125 -2.65625 L 1.84375 -2.140625 C 1.601562 -2.066406 1.484375 -1.890625 1.484375 -1.609375 C 1.484375 -1.359375 1.566406 -1.15625 1.734375 -1 C 1.898438 -0.84375 2.109375 -0.765625 2.359375 -0.765625 Z M 2.359375 -0.765625 "/></g></g></g><g fill="#000000" fill-opacity="1"><g transform="translate(239.629145, 72.229214)"><g/></g></g><g fill="#000000" fill-opacity="1"><g transform="translate(242.139435, 72.229214)"><g><path d="M 2.171875 0.15625 C 1.898438 0.15625 1.648438 0.132812 1.421875 0.09375 C 1.203125 0.0507812 1.023438 0.0078125 0.890625 -0.03125 C 0.765625 -0.0703125 0.6875 -0.0976562 0.65625 -0.109375 L 0.625 -0.203125 C 0.644531 -0.328125 0.671875 -0.585938 0.703125 -0.984375 C 0.742188 -1.378906 0.765625 -1.6875 0.765625 -1.90625 L 1.21875 -1.96875 C 1.21875 -1.40625 1.3125 -1.007812 1.5 -0.78125 C 1.6875 -0.550781 2.003906 -0.4375 2.453125 -0.4375 C 2.765625 -0.4375 3.03125 -0.507812 3.25 -0.65625 C 3.476562 -0.800781 3.59375 -0.976562 3.59375 -1.1875 C 3.59375 -1.40625 3.488281 -1.597656 3.28125 -1.765625 C 3.082031 -1.941406 2.691406 -2.1875 2.109375 -2.5 C 1.628906 -2.738281 1.28125 -2.984375 1.0625 -3.234375 C 0.84375 -3.492188 0.734375 -3.773438 0.734375 -4.078125 C 0.734375 -4.421875 0.832031 -4.726562 1.03125 -5 C 1.238281 -5.269531 1.519531 -5.484375 1.875 -5.640625 C 2.226562 -5.796875 2.625 -5.875 3.0625 -5.875 C 3.269531 -5.875 3.460938 -5.859375 3.640625 -5.828125 C 3.828125 -5.804688 3.976562 -5.773438 4.09375 -5.734375 C 4.21875 -5.703125 4.296875 -5.679688 4.328125 -5.671875 L 4.359375 -5.609375 C 4.335938 -5.523438 4.296875 -5.332031 4.234375 -5.03125 C 4.179688 -4.738281 4.144531 -4.414062 4.125 -4.0625 L 3.65625 -4.03125 C 3.65625 -4.050781 3.65625 -4.097656 3.65625 -4.171875 C 3.664062 -4.253906 3.671875 -4.328125 3.671875 -4.390625 C 3.671875 -4.703125 3.585938 -4.925781 3.421875 -5.0625 C 3.265625 -5.195312 3.003906 -5.265625 2.640625 -5.265625 C 2.347656 -5.265625 2.101562 -5.195312 1.90625 -5.0625 C 1.707031 -4.925781 1.609375 -4.765625 1.609375 -4.578125 C 1.609375 -4.367188 1.691406 -4.175781 1.859375 -4 C 2.035156 -3.820312 2.320312 -3.632812 2.71875 -3.4375 C 3.394531 -3.070312 3.859375 -2.765625 4.109375 -2.515625 C 4.359375 -2.265625 4.484375 -1.976562 4.484375 -1.65625 C 4.484375 -1.332031 4.378906 -1.03125 4.171875 -0.75 C 3.960938 -0.476562 3.675781 -0.257812 3.3125 -0.09375 C 2.957031 0.0703125 2.578125 0.15625 2.171875 0.15625 Z M 2.171875 0.15625 "/></g></g></g><g fill="#000000" fill-opacity="1"><g transform="translate(247.236092, 72.229214)"><g><path d="M 1.140625 -4.390625 C 1.140625 -4.847656 0.984375 -5.078125 0.671875 -5.078125 C 0.609375 -5.078125 0.539062 -5.070312 0.46875 -5.0625 C 0.40625 -5.050781 0.367188 -5.039062 0.359375 -5.03125 L 0.40625 -5.5 C 0.738281 -5.550781 1.09375 -5.617188 1.46875 -5.703125 C 1.851562 -5.796875 2.101562 -5.851562 2.21875 -5.875 L 2.296875 -5.734375 C 2.210938 -5.503906 2.132812 -5 2.0625 -4.21875 C 2 -3.445312 1.96875 -2.695312 1.96875 -1.96875 C 1.96875 -1.132812 2.304688 -0.71875 2.984375 -0.71875 C 3.234375 -0.71875 3.46875 -0.78125 3.6875 -0.90625 C 3.90625 -1.03125 4.179688 -1.207031 4.515625 -1.4375 L 4.515625 -4.390625 C 4.515625 -4.640625 4.46875 -4.8125 4.375 -4.90625 C 4.28125 -5.007812 4.113281 -5.0625 3.875 -5.0625 L 3.578125 -5.0625 L 3.625 -5.515625 C 4 -5.566406 4.382812 -5.632812 4.78125 -5.71875 C 5.1875 -5.800781 5.453125 -5.851562 5.578125 -5.875 L 5.65625 -5.734375 C 5.570312 -5.535156 5.503906 -5.003906 5.453125 -4.140625 C 5.398438 -3.273438 5.375 -2.335938 5.375 -1.328125 C 5.375 -1.140625 5.421875 -0.992188 5.515625 -0.890625 C 5.609375 -0.796875 5.734375 -0.75 5.890625 -0.75 C 6.003906 -0.75 6.117188 -0.769531 6.234375 -0.8125 C 6.347656 -0.863281 6.441406 -0.914062 6.515625 -0.96875 C 6.585938 -1.019531 6.632812 -1.050781 6.65625 -1.0625 L 6.828125 -0.859375 C 6.796875 -0.804688 6.71875 -0.695312 6.59375 -0.53125 C 6.46875 -0.375 6.320312 -0.21875 6.15625 -0.0625 C 6 0.0820312 5.859375 0.15625 5.734375 0.15625 C 5.046875 0.15625 4.664062 -0.1875 4.59375 -0.875 L 4.53125 -0.90625 C 4.125 -0.59375 3.757812 -0.335938 3.4375 -0.140625 C 3.113281 0.0546875 2.894531 0.15625 2.78125 0.15625 C 2.238281 0.15625 1.820312 0.03125 1.53125 -0.21875 C 1.238281 -0.476562 1.09375 -0.84375 1.09375 -1.3125 Z M 1.140625 -4.390625 "/></g></g></g><g fill="#000000" fill-opacity="1"><g transform="translate(254.095028, 72.229214)"><g><path d="M 4.71875 0.15625 C 4.03125 0.15625 3.65625 -0.1875 3.59375 -0.875 L 3.53125 -0.890625 C 3.226562 -0.585938 2.953125 -0.347656 2.703125 -0.171875 C 2.453125 0.00390625 2.265625 0.09375 2.140625 0.09375 C 1.671875 0.09375 1.28125 -0.0507812 0.96875 -0.34375 C 0.664062 -0.632812 0.515625 -1.007812 0.515625 -1.46875 C 0.515625 -1.71875 0.578125 -1.929688 0.703125 -2.109375 C 0.828125 -2.296875 0.988281 -2.421875 1.1875 -2.484375 L 3.59375 -3.140625 L 3.609375 -3.703125 C 3.609375 -4.117188 3.507812 -4.445312 3.3125 -4.6875 C 3.125 -4.925781 2.851562 -5.046875 2.5 -5.046875 C 2.257812 -5.046875 2.007812 -4.988281 1.75 -4.875 C 1.488281 -4.769531 1.226562 -4.613281 0.96875 -4.40625 L 0.90625 -4.453125 L 0.765625 -5 C 1.160156 -5.21875 1.554688 -5.414062 1.953125 -5.59375 C 2.359375 -5.78125 2.648438 -5.875 2.828125 -5.875 C 3.378906 -5.875 3.8125 -5.726562 4.125 -5.4375 C 4.4375 -5.15625 4.59375 -4.757812 4.59375 -4.25 C 4.59375 -4.0625 4.5625 -3.679688 4.5 -3.109375 C 4.40625 -2.171875 4.359375 -1.578125 4.359375 -1.328125 C 4.359375 -1.140625 4.40625 -0.992188 4.5 -0.890625 C 4.59375 -0.796875 4.71875 -0.75 4.875 -0.75 C 5.007812 -0.75 5.148438 -0.78125 5.296875 -0.84375 C 5.441406 -0.90625 5.554688 -0.976562 5.640625 -1.0625 L 5.8125 -0.859375 C 5.6875 -0.648438 5.523438 -0.445312 5.328125 -0.25 C 5.128906 -0.0507812 4.925781 0.0820312 4.71875 0.15625 Z M 2.359375 -0.765625 C 2.515625 -0.765625 2.703125 -0.820312 2.921875 -0.9375 C 3.140625 -1.050781 3.335938 -1.195312 3.515625 -1.375 L 3.578125 -2.65625 L 1.84375 -2.140625 C 1.601562 -2.066406 1.484375 -1.890625 1.484375 -1.609375 C 1.484375 -1.359375 1.566406 -1.15625 1.734375 -1 C 1.898438 -0.84375 2.109375 -0.765625 2.359375 -0.765625 Z M 2.359375 -0.765625 "/></g></g></g><g fill="#000000" fill-opacity="1"><g transform="translate(260.003094, 72.229214)"><g/></g></g><g fill="#000000" fill-opacity="1"><g transform="translate(262.513383, 72.229214)"><g><path d="M 4.125 -0.375 C 4.375 -0.4375 4.550781 -0.53125 4.65625 -0.65625 C 4.769531 -0.789062 4.828125 -0.96875 4.828125 -1.1875 L 4.875 -3.703125 C 4.875 -4.117188 4.78125 -4.441406 4.59375 -4.671875 C 4.414062 -4.898438 4.160156 -5.015625 3.828125 -5.015625 C 3.554688 -5.015625 3.28125 -4.941406 3 -4.796875 C 2.71875 -4.660156 2.472656 -4.515625 2.265625 -4.359375 C 2.191406 -2.609375 2.15625 -1.566406 2.15625 -1.234375 C 2.15625 -0.972656 2.1875 -0.789062 2.25 -0.6875 C 2.320312 -0.582031 2.441406 -0.53125 2.609375 -0.53125 C 2.703125 -0.53125 2.789062 -0.535156 2.875 -0.546875 C 2.957031 -0.554688 3.015625 -0.5625 3.046875 -0.5625 L 3.078125 -0.5 L 2.96875 0.03125 C 2.882812 0.03125 2.734375 0.0234375 2.515625 0.015625 C 2.296875 0.00390625 2.0625 0 1.8125 0 C 1.53125 0 1.269531 0.00390625 1.03125 0.015625 C 0.800781 0.0234375 0.644531 0.03125 0.5625 0.03125 L 0.640625 -0.5 C 0.878906 -0.519531 1.046875 -0.582031 1.140625 -0.6875 C 1.242188 -0.789062 1.296875 -0.957031 1.296875 -1.1875 L 1.296875 -4.28125 C 1.296875 -4.570312 1.25 -4.773438 1.15625 -4.890625 C 1.0625 -5.003906 0.898438 -5.0625 0.671875 -5.0625 L 0.53125 -5.0625 L 0.5 -5.109375 L 0.53125 -5.53125 C 0.894531 -5.582031 1.253906 -5.648438 1.609375 -5.734375 C 1.972656 -5.816406 2.207031 -5.867188 2.3125 -5.890625 L 2.375 -5.796875 C 2.363281 -5.742188 2.335938 -5.632812 2.296875 -5.46875 C 2.265625 -5.300781 2.25 -5.128906 2.25 -4.953125 L 2.265625 -4.921875 C 3.210938 -5.554688 3.832031 -5.875 4.125 -5.875 C 4.53125 -5.875 4.875 -5.785156 5.15625 -5.609375 C 5.4375 -5.441406 5.632812 -5.195312 5.75 -4.875 C 6.050781 -5.09375 6.390625 -5.3125 6.765625 -5.53125 C 7.148438 -5.757812 7.453125 -5.875 7.671875 -5.875 C 8.203125 -5.875 8.625 -5.726562 8.9375 -5.4375 C 9.25 -5.144531 9.40625 -4.75 9.40625 -4.25 C 9.40625 -4.164062 9.378906 -3.773438 9.328125 -3.078125 C 9.253906 -2.203125 9.21875 -1.585938 9.21875 -1.234375 C 9.21875 -0.972656 9.25 -0.789062 9.3125 -0.6875 C 9.382812 -0.582031 9.507812 -0.53125 9.6875 -0.53125 C 9.78125 -0.53125 9.867188 -0.535156 9.953125 -0.546875 C 10.035156 -0.554688 10.09375 -0.5625 10.125 -0.5625 L 10.15625 -0.5 L 10.03125 0.03125 C 9.957031 0.03125 9.8125 0.0234375 9.59375 0.015625 C 9.375 0.00390625 9.140625 0 8.890625 0 C 8.660156 0 8.410156 0.0078125 8.140625 0.03125 C 7.878906 0.0507812 7.707031 0.0664062 7.625 0.078125 L 7.6875 -0.4375 C 7.9375 -0.476562 8.109375 -0.554688 8.203125 -0.671875 C 8.304688 -0.785156 8.359375 -0.957031 8.359375 -1.1875 L 8.421875 -3.703125 C 8.421875 -4.117188 8.328125 -4.441406 8.140625 -4.671875 C 7.960938 -4.898438 7.703125 -5.015625 7.359375 -5.015625 C 6.921875 -5.015625 6.410156 -4.804688 5.828125 -4.390625 L 5.6875 -1.234375 C 5.6875 -0.992188 5.71875 -0.816406 5.78125 -0.703125 C 5.851562 -0.585938 5.972656 -0.53125 6.140625 -0.53125 C 6.222656 -0.53125 6.304688 -0.535156 6.390625 -0.546875 C 6.484375 -0.554688 6.546875 -0.5625 6.578125 -0.5625 L 6.609375 -0.5 L 6.5 0.03125 C 6.425781 0.03125 6.28125 0.0234375 6.0625 0.015625 C 5.851562 0.00390625 5.625 0 5.375 0 C 5.15625 0 4.898438 0.0195312 4.609375 0.0625 C 4.328125 0.101562 4.144531 0.132812 4.0625 0.15625 Z M 4.125 -0.375 "/></g></g></g><g fill="#000000" fill-opacity="1"><g transform="translate(273.061692, 72.229214)"><g><path d="M 4.71875 0.15625 C 4.03125 0.15625 3.65625 -0.1875 3.59375 -0.875 L 3.53125 -0.890625 C 3.226562 -0.585938 2.953125 -0.347656 2.703125 -0.171875 C 2.453125 0.00390625 2.265625 0.09375 2.140625 0.09375 C 1.671875 0.09375 1.28125 -0.0507812 0.96875 -0.34375 C 0.664062 -0.632812 0.515625 -1.007812 0.515625 -1.46875 C 0.515625 -1.71875 0.578125 -1.929688 0.703125 -2.109375 C 0.828125 -2.296875 0.988281 -2.421875 1.1875 -2.484375 L 3.59375 -3.140625 L 3.609375 -3.703125 C 3.609375 -4.117188 3.507812 -4.445312 3.3125 -4.6875 C 3.125 -4.925781 2.851562 -5.046875 2.5 -5.046875 C 2.257812 -5.046875 2.007812 -4.988281 1.75 -4.875 C 1.488281 -4.769531 1.226562 -4.613281 0.96875 -4.40625 L 0.90625 -4.453125 L 0.765625 -5 C 1.160156 -5.21875 1.554688 -5.414062 1.953125 -5.59375 C 2.359375 -5.78125 2.648438 -5.875 2.828125 -5.875 C 3.378906 -5.875 3.8125 -5.726562 4.125 -5.4375 C 4.4375 -5.15625 4.59375 -4.757812 4.59375 -4.25 C 4.59375 -4.0625 4.5625 -3.679688 4.5 -3.109375 C 4.40625 -2.171875 4.359375 -1.578125 4.359375 -1.328125 C 4.359375 -1.140625 4.40625 -0.992188 4.5 -0.890625 C 4.59375 -0.796875 4.71875 -0.75 4.875 -0.75 C 5.007812 -0.75 5.148438 -0.78125 5.296875 -0.84375 C 5.441406 -0.90625 5.554688 -0.976562 5.640625 -1.0625 L 5.8125 -0.859375 C 5.6875 -0.648438 5.523438 -0.445312 5.328125 -0.25 C 5.128906 -0.0507812 4.925781 0.0820312 4.71875 0.15625 Z M 2.359375 -0.765625 C 2.515625 -0.765625 2.703125 -0.820312 2.921875 -0.9375 C 3.140625 -1.050781 3.335938 -1.195312 3.515625 -1.375 L 3.578125 -2.65625 L 1.84375 -2.140625 C 1.601562 -2.066406 1.484375 -1.890625 1.484375 -1.609375 C 1.484375 -1.359375 1.566406 -1.15625 1.734375 -1 C 1.898438 -0.84375 2.109375 -0.765625 2.359375 -0.765625 Z M 0.796875 -7.25 L 0.796875 -7.3125 L 1.765625 -8.4375 L 1.96875 -8.484375 C 2.125 -8.484375 2.410156 -8.410156 2.828125 -8.265625 C 2.910156 -8.234375 3.035156 -8.191406 3.203125 -8.140625 C 3.367188 -8.097656 3.488281 -8.078125 3.5625 -8.078125 C 3.644531 -8.078125 3.742188 -8.125 3.859375 -8.21875 C 3.984375 -8.320312 4.09375 -8.429688 4.1875 -8.546875 C 4.28125 -8.660156 4.335938 -8.734375 4.359375 -8.765625 L 4.4375 -8.765625 L 4.71875 -8.5 L 4.71875 -8.4375 L 3.75 -7.3125 L 3.546875 -7.265625 C 3.398438 -7.265625 3.113281 -7.335938 2.6875 -7.484375 C 2.613281 -7.515625 2.492188 -7.550781 2.328125 -7.59375 C 2.160156 -7.644531 2.035156 -7.671875 1.953125 -7.671875 C 1.859375 -7.671875 1.753906 -7.617188 1.640625 -7.515625 C 1.523438 -7.421875 1.421875 -7.316406 1.328125 -7.203125 C 1.242188 -7.085938 1.1875 -7.015625 1.15625 -6.984375 L 1.078125 -6.984375 Z M 0.796875 -7.25 "/></g></g></g><g fill="#000000" fill-opacity="1"><g transform="translate(278.969759, 72.229214)"><g><path d="M 2.921875 0.15625 C 2.429688 0.15625 2 0.0351562 1.625 -0.203125 C 1.257812 -0.441406 0.972656 -0.773438 0.765625 -1.203125 C 0.554688 -1.628906 0.453125 -2.113281 0.453125 -2.65625 C 0.453125 -3.25 0.582031 -3.789062 0.84375 -4.28125 C 1.101562 -4.78125 1.457031 -5.171875 1.90625 -5.453125 C 2.351562 -5.734375 2.847656 -5.875 3.390625 -5.875 C 3.867188 -5.875 4.296875 -5.753906 4.671875 -5.515625 C 5.046875 -5.285156 5.335938 -4.957031 5.546875 -4.53125 C 5.753906 -4.101562 5.859375 -3.613281 5.859375 -3.0625 C 5.859375 -2.46875 5.726562 -1.925781 5.46875 -1.4375 C 5.207031 -0.945312 4.851562 -0.554688 4.40625 -0.265625 C 3.957031 0.015625 3.460938 0.15625 2.921875 0.15625 Z M 3.265625 -0.46875 C 3.742188 -0.46875 4.117188 -0.660156 4.390625 -1.046875 C 4.671875 -1.429688 4.8125 -1.953125 4.8125 -2.609375 C 4.8125 -3.109375 4.734375 -3.550781 4.578125 -3.9375 C 4.429688 -4.332031 4.21875 -4.640625 3.9375 -4.859375 C 3.664062 -5.085938 3.359375 -5.203125 3.015625 -5.203125 C 2.546875 -5.203125 2.171875 -5.003906 1.890625 -4.609375 C 1.609375 -4.222656 1.46875 -3.695312 1.46875 -3.03125 C 1.46875 -2.53125 1.539062 -2.082031 1.6875 -1.6875 C 1.84375 -1.300781 2.054688 -1 2.328125 -0.78125 C 2.597656 -0.570312 2.910156 -0.46875 3.265625 -0.46875 Z M 3.265625 -0.46875 "/></g></g></g><g fill="#000000" fill-opacity="1"><g transform="translate(285.283532, 72.229214)"><g><path d="M 1.34375 -2.65625 L 1.234375 -8.4375 L 1.328125 -8.5625 L 2.375 -8.796875 L 2.5 -8.65625 L 1.84375 -2.640625 L 1.484375 -2.5625 Z M 1.484375 0.15625 C 1.253906 0.15625 1.078125 0.0859375 0.953125 -0.046875 C 0.828125 -0.191406 0.765625 -0.363281 0.765625 -0.5625 C 0.765625 -0.789062 0.835938 -0.976562 0.984375 -1.125 C 1.128906 -1.28125 1.320312 -1.359375 1.5625 -1.359375 C 1.789062 -1.359375 1.96875 -1.285156 2.09375 -1.140625 C 2.21875 -1.003906 2.28125 -0.835938 2.28125 -0.640625 C 2.28125 -0.410156 2.207031 -0.21875 2.0625 -0.0625 C 1.914062 0.0820312 1.722656 0.15625 1.484375 0.15625 Z M 1.484375 0.15625 "/></g></g></g></svg>