<?xml version="1.0" encoding="UTF-8"?>
<svg xmlns="http://www.w3.org/2000/svg" xmlns:xlink="http://www.w3.org/1999/xlink" width="2500" height="2500" viewBox="0 0 2500 2500">
<path fill-rule="evenodd" fill="rgb(0%, 0%, 0%)" fill-opacity="1" d="M 1827.648438 1852.78125 C 1833.609375 1852.78125 1839.308594 1850.355469 1843.449219 1846.066406 C 1847.578125 1841.773438 1849.800781 1835.980469 1849.570312 1830.023438 C 1843.839844 1679.164062 1781.410156 1535.664062 1674.261719 1428.519531 C 1440.101562 1194.359375 1059.890625 1194.359375 825.730469 1428.519531 C 718.585938 1535.664062 656.148438 1679.164062 650.425781 1830.027344 C 650.203125 1835.980469 652.414062 1841.769531 656.550781 1846.058594 C 660.683594 1850.347656 666.386719 1852.773438 672.34375 1852.773438 C 672.34375 1852.78125 672.34375 1852.78125 672.34375 1852.78125 C 684.605469 1852.78125 694.675781 1843.097656 695.152344 1830.84375 C 700.648438 1691.546875 758.398438 1559.089844 857.351562 1460.140625 C 1074.058594 1243.429688 1425.929688 1243.429688 1642.640625 1460.140625 C 1741.589844 1559.089844 1799.339844 1691.546875 1804.851562 1830.84375 C 1805.320312 1843.089844 1815.390625 1852.773438 1827.648438 1852.773438 C 1827.648438 1852.78125 1827.648438 1852.78125 1827.648438 1852.78125 "/>
<path fill="none" stroke-width="200" stroke-linecap="round" stroke-linejoin="round" stroke="rgb(0%, 0%, 0%)" stroke-opacity="1" stroke-miterlimit="10" d="M 18276.484375 6472.1875 C 18336.09375 6472.1875 18393.085938 6496.445312 18434.492188 6539.335938 C 18475.78125 6582.265625 18498.007812 6640.195312 18495.703125 6699.765625 C 18438.398438 8208.359375 17814.101562 9643.359375 16742.617188 10714.804688 C 14401.015625 13056.40625 10598.90625 13056.40625 8257.304688 10714.804688 C 7185.859375 9643.359375 6561.484375 8208.359375 6504.257812 6699.726562 C 6502.03125 6640.195312 6524.140625 6582.304688 6565.507812 6539.414062 C 6606.835938 6496.523438 6663.867188 6472.265625 6723.4375 6472.265625 C 6723.4375 6472.1875 6723.4375 6472.1875 6723.4375 6472.1875 C 6846.054688 6472.1875 6946.757812 6569.023438 6951.523438 6691.5625 C 7006.484375 8084.53125 7583.984375 9409.101562 8573.515625 10398.59375 C 10740.585938 12565.703125 14259.296875 12565.703125 16426.40625 10398.59375 C 17415.898438 9409.101562 17993.398438 8084.53125 18048.515625 6691.5625 C 18053.203125 6569.101562 18153.90625 6472.265625 18276.484375 6472.265625 C 18276.484375 6472.1875 18276.484375 6472.1875 18276.484375 6472.1875 Z M 18276.484375 6472.1875 " transform="matrix(0.1, 0, 0, -0.1, 0, 2500)"/>
<path fill="none" stroke-width="600" stroke-linecap="round" stroke-linejoin="round" stroke="rgb(0%, 0%, 0%)" stroke-opacity="1" stroke-miterlimit="10" d="M 12500 18527.8125 C 14017.8125 18527.8125 15250 17295.585938 15250 15777.8125 C 15250 14260.117188 14017.8125 13027.8125 12500 13027.8125 C 10982.1875 13027.8125 9750 14260.117188 9750 15777.8125 C 9750 17295.585938 10982.1875 18527.8125 12500 18527.8125 Z M 12500 18527.8125 " transform="matrix(0.1, 0, 0, -0.1, 0, 2500)"/>
<path fill="none" stroke-width="600" stroke-linecap="round" stroke-linejoin="round" stroke="rgb(0%, 0%, 0%)" stroke-opacity="1" stroke-miterlimit="10" d="M 12500 21500 C 17467.1875 21500 21500 17467.1875 21500 12500 C 21500 7532.773438 17467.1875 3500 12500 3500 C 7532.773438 3500 3500 7532.773438 3500 12500 C 3500 17467.1875 7532.773438 21500 12500 21500 Z M 12500 21500 " transform="matrix(0.1, 0, 0, -0.1, 0, 2500)"/>
</svg>
