<svg xmlns="http://www.w3.org/2000/svg" xmlns:xlink="http://www.w3.org/1999/xlink" width="1000" zoomAndPan="magnify" viewBox="0 0 750 374.999991" height="500" preserveAspectRatio="xMidYMid meet" version="1.0"><defs><g/><clipPath id="22d7693981"><path d="M 145.175781 135.949219 L 215.527344 135.949219 L 215.527344 239 L 145.175781 239 Z M 145.175781 135.949219 " clip-rule="nonzero"/></clipPath><clipPath id="5056c75024"><path d="M 511 66 L 622 66 L 622 160 L 511 160 Z M 511 66 " clip-rule="nonzero"/></clipPath><clipPath id="ca17683076"><path d="M 531.40625 59.632812 L 638.089844 87.453125 L 617.835938 165.109375 L 511.15625 137.285156 Z M 531.40625 59.632812 " clip-rule="nonzero"/></clipPath><clipPath id="3243696a80"><path d="M 531.40625 59.632812 L 638.089844 87.453125 L 617.835938 165.109375 L 511.15625 137.285156 Z M 531.40625 59.632812 " clip-rule="nonzero"/></clipPath><clipPath id="9221741584"><path d="M 529 113 L 551 113 L 551 130 L 529 130 Z M 529 113 " clip-rule="nonzero"/></clipPath><clipPath id="25ce5deb10"><path d="M 531.40625 59.632812 L 638.089844 87.453125 L 617.835938 165.109375 L 511.15625 137.285156 Z M 531.40625 59.632812 " clip-rule="nonzero"/></clipPath><clipPath id="fbb29a1d40"><path d="M 531.40625 59.632812 L 638.089844 87.453125 L 617.835938 165.109375 L 511.15625 137.285156 Z M 531.40625 59.632812 " clip-rule="nonzero"/></clipPath><clipPath id="1ffac4fc92"><path d="M 537 93 L 557 93 L 557 111 L 537 111 Z M 537 93 " clip-rule="nonzero"/></clipPath><clipPath id="9b6cc7fe69"><path d="M 531.40625 59.632812 L 638.089844 87.453125 L 617.835938 165.109375 L 511.15625 137.285156 Z M 531.40625 59.632812 " clip-rule="nonzero"/></clipPath><clipPath id="3febc5a820"><path d="M 531.40625 59.632812 L 638.089844 87.453125 L 617.835938 165.109375 L 511.15625 137.285156 Z M 531.40625 59.632812 " clip-rule="nonzero"/></clipPath><clipPath id="37ad7cf107"><path d="M 551 118 L 571 118 L 571 136 L 551 136 Z M 551 118 " clip-rule="nonzero"/></clipPath><clipPath id="112556a658"><path d="M 531.40625 59.632812 L 638.089844 87.453125 L 617.835938 165.109375 L 511.15625 137.285156 Z M 531.40625 59.632812 " clip-rule="nonzero"/></clipPath><clipPath id="9c68a285a8"><path d="M 531.40625 59.632812 L 638.089844 87.453125 L 617.835938 165.109375 L 511.15625 137.285156 Z M 531.40625 59.632812 " clip-rule="nonzero"/></clipPath><clipPath id="7fb1b33a11"><path d="M 560 99 L 580 99 L 580 116 L 560 116 Z M 560 99 " clip-rule="nonzero"/></clipPath><clipPath id="dc2a578262"><path d="M 531.40625 59.632812 L 638.089844 87.453125 L 617.835938 165.109375 L 511.15625 137.285156 Z M 531.40625 59.632812 " clip-rule="nonzero"/></clipPath><clipPath id="5b9c763710"><path d="M 531.40625 59.632812 L 638.089844 87.453125 L 617.835938 165.109375 L 511.15625 137.285156 Z M 531.40625 59.632812 " clip-rule="nonzero"/></clipPath><clipPath id="80590b9890"><path d="M 574 124 L 594 124 L 594 142 L 574 142 Z M 574 124 " clip-rule="nonzero"/></clipPath><clipPath id="c5f2bb7d91"><path d="M 531.40625 59.632812 L 638.089844 87.453125 L 617.835938 165.109375 L 511.15625 137.285156 Z M 531.40625 59.632812 " clip-rule="nonzero"/></clipPath><clipPath id="f06025a58d"><path d="M 531.40625 59.632812 L 638.089844 87.453125 L 617.835938 165.109375 L 511.15625 137.285156 Z M 531.40625 59.632812 " clip-rule="nonzero"/></clipPath><clipPath id="d8f6572d65"><path d="M 582 105 L 605 105 L 605 122 L 582 122 Z M 582 105 " clip-rule="nonzero"/></clipPath><clipPath id="8ecf172fd9"><path d="M 531.40625 59.632812 L 638.089844 87.453125 L 617.835938 165.109375 L 511.15625 137.285156 Z M 531.40625 59.632812 " clip-rule="nonzero"/></clipPath><clipPath id="5b86018439"><path d="M 531.40625 59.632812 L 638.089844 87.453125 L 617.835938 165.109375 L 511.15625 137.285156 Z M 531.40625 59.632812 " clip-rule="nonzero"/></clipPath><clipPath id="b2c2bfa9f7"><path d="M 555 73 L 588 73 L 588 92 L 555 92 Z M 555 73 " clip-rule="nonzero"/></clipPath><clipPath id="07ff86e20d"><path d="M 531.40625 59.632812 L 638.089844 87.453125 L 617.835938 165.109375 L 511.15625 137.285156 Z M 531.40625 59.632812 " clip-rule="nonzero"/></clipPath><clipPath id="389d3a24ab"><path d="M 531.40625 59.632812 L 638.089844 87.453125 L 617.835938 165.109375 L 511.15625 137.285156 Z M 531.40625 59.632812 " clip-rule="nonzero"/></clipPath><clipPath id="3cf9b636fe"><path d="M 579 79 L 613 79 L 613 98 L 579 98 Z M 579 79 " clip-rule="nonzero"/></clipPath><clipPath id="2405cc05fa"><path d="M 531.40625 59.632812 L 638.089844 87.453125 L 617.835938 165.109375 L 511.15625 137.285156 Z M 531.40625 59.632812 " clip-rule="nonzero"/></clipPath><clipPath id="f596de593d"><path d="M 531.40625 59.632812 L 638.089844 87.453125 L 617.835938 165.109375 L 511.15625 137.285156 Z M 531.40625 59.632812 " clip-rule="nonzero"/></clipPath></defs><g fill="#2b2b2b" fill-opacity="1"><g transform="translate(220.331011, 238.499984)"><g><path d="M 13.4375 0 L 13.4375 -83.28125 L 1.203125 -83.28125 L 1.203125 -103.078125 L 46.3125 -103.078125 L 46.3125 -83.28125 L 34.078125 -83.28125 L 34.078125 0 Z M 13.4375 0 "/></g></g></g><g fill="#2b2b2b" fill-opacity="1"><g transform="translate(267.851031, 238.499984)"><g><path d="M 4.5625 -103.078125 L 36.234375 -103.078125 C 41.273438 -103.078125 45.175781 -101.9375 47.9375 -99.65625 C 50.695312 -97.375 52.554688 -94.171875 53.515625 -90.046875 C 54.472656 -85.929688 54.953125 -80.675781 54.953125 -74.28125 C 54.953125 -68.4375 54.191406 -63.875 52.671875 -60.59375 C 51.160156 -57.320312 48.523438 -55.046875 44.765625 -53.765625 C 47.878906 -53.117188 50.132812 -51.554688 51.53125 -49.078125 C 52.9375 -46.597656 53.640625 -43.238281 53.640625 -39 L 53.40625 0 L 33.234375 0 L 33.234375 -40.3125 C 33.234375 -43.195312 32.671875 -45.039062 31.546875 -45.84375 C 30.429688 -46.644531 28.394531 -47.046875 25.4375 -47.046875 L 25.4375 0 L 4.5625 0 Z M 30.484375 -64.921875 C 33.359375 -64.921875 34.796875 -68.039062 34.796875 -74.28125 C 34.796875 -77 34.675781 -79.035156 34.4375 -80.390625 C 34.195312 -81.753906 33.753906 -82.695312 33.109375 -83.21875 C 32.472656 -83.738281 31.554688 -84 30.359375 -84 L 25.5625 -84 L 25.5625 -64.921875 Z M 30.484375 -64.921875 "/></g></g></g><g fill="#2b2b2b" fill-opacity="1"><g transform="translate(325.091056, 238.499984)"><g><path d="M 1.796875 0 L 11.765625 -103.078125 L 46.6875 -103.078125 L 56.515625 0 L 36.953125 0 L 35.515625 -16.6875 L 23.046875 -16.6875 L 21.84375 0 Z M 24.59375 -33.125 L 33.953125 -33.125 L 29.40625 -85.5625 L 28.4375 -85.5625 Z M 24.59375 -33.125 "/></g></g></g><g fill="#2b2b2b" fill-opacity="1"><g transform="translate(383.29108, 238.499984)"><g><path d="M 28.5625 0.953125 C 21.039062 0.953125 15.019531 -1.40625 10.5 -6.125 C 5.976562 -10.84375 3.71875 -17.320312 3.71875 -25.5625 L 3.71875 -73.078125 C 3.71875 -83.316406 5.753906 -91.035156 9.828125 -96.234375 C 13.910156 -101.441406 20.316406 -104.046875 29.046875 -104.046875 C 36.640625 -104.046875 42.753906 -101.960938 47.390625 -97.796875 C 52.035156 -93.640625 54.359375 -87.640625 54.359375 -79.796875 L 54.359375 -62.046875 L 33.84375 -62.046875 L 33.84375 -77.28125 C 33.84375 -80.238281 33.484375 -82.273438 32.765625 -83.390625 C 32.046875 -84.515625 30.804688 -85.078125 29.046875 -85.078125 C 27.203125 -85.078125 25.9375 -84.4375 25.25 -83.15625 C 24.570312 -81.875 24.234375 -79.992188 24.234375 -77.515625 L 24.234375 -25.796875 C 24.234375 -23.078125 24.632812 -21.097656 25.4375 -19.859375 C 26.238281 -18.617188 27.441406 -18 29.046875 -18 C 32.242188 -18 33.84375 -20.597656 33.84375 -25.796875 L 33.84375 -44.40625 L 54.59375 -44.40625 L 54.59375 -24.953125 C 54.59375 -7.679688 45.914062 0.953125 28.5625 0.953125 Z M 28.5625 0.953125 "/></g></g></g><g fill="#2b2b2b" fill-opacity="1"><g transform="translate(440.171107, 238.499984)"><g><path d="M 4.5625 0 L 4.5625 -103.078125 L 24.953125 -103.078125 L 24.953125 -61.796875 L 34.5625 -103.078125 L 55.3125 -103.078125 L 43.796875 -55.921875 L 57.71875 0 L 36.359375 0 L 25.078125 -49.921875 L 25.078125 0 Z M 4.5625 0 "/></g></g></g><g fill="#2b2b2b" fill-opacity="1"><g transform="translate(496.811141, 238.499984)"><g><path d="M 4.5625 0 L 4.5625 -103.078125 L 45.84375 -103.078125 L 45.84375 -83.15625 L 25.5625 -83.15625 L 25.5625 -63.125 L 45 -63.125 L 45 -43.6875 L 25.5625 -43.6875 L 25.5625 -20.046875 L 47.15625 -20.046875 L 47.15625 0 Z M 4.5625 0 "/></g></g></g><g fill="#2b2b2b" fill-opacity="1"><g transform="translate(546.251171, 238.499984)"><g><path d="M 4.5625 -103.078125 L 36.234375 -103.078125 C 41.273438 -103.078125 45.175781 -101.9375 47.9375 -99.65625 C 50.695312 -97.375 52.554688 -94.171875 53.515625 -90.046875 C 54.472656 -85.929688 54.953125 -80.675781 54.953125 -74.28125 C 54.953125 -68.4375 54.191406 -63.875 52.671875 -60.59375 C 51.160156 -57.320312 48.523438 -55.046875 44.765625 -53.765625 C 47.878906 -53.117188 50.132812 -51.554688 51.53125 -49.078125 C 52.9375 -46.597656 53.640625 -43.238281 53.640625 -39 L 53.40625 0 L 33.234375 0 L 33.234375 -40.3125 C 33.234375 -43.195312 32.671875 -45.039062 31.546875 -45.84375 C 30.429688 -46.644531 28.394531 -47.046875 25.4375 -47.046875 L 25.4375 0 L 4.5625 0 Z M 30.484375 -64.921875 C 33.359375 -64.921875 34.796875 -68.039062 34.796875 -74.28125 C 34.796875 -77 34.675781 -79.035156 34.4375 -80.390625 C 34.195312 -81.753906 33.753906 -82.695312 33.109375 -83.21875 C 32.472656 -83.738281 31.554688 -84 30.359375 -84 L 25.5625 -84 L 25.5625 -64.921875 Z M 30.484375 -64.921875 "/></g></g></g><g clip-path="url(#22d7693981)"><path fill="#2b2b2b" d="M 145.175781 135.949219 L 215.527344 135.949219 L 215.527344 239 L 145.175781 239 Z M 145.175781 135.949219 " fill-opacity="1" fill-rule="nonzero"/></g><g fill="#e6e6dd" fill-opacity="1"><g transform="translate(204.036368, 239.101507)"><g><path d="M 0 -2.1875 L -49.5 -2.1875 L -49.5 -22.015625 L -39.9375 -22.015625 L -39.9375 -12.28125 L -30.3125 -12.28125 L -30.3125 -21.609375 L -20.96875 -21.609375 L -20.96875 -12.28125 L -9.625 -12.28125 L -9.625 -22.640625 L 0 -22.640625 Z M 0 -2.1875 "/></g></g></g><g fill="#e6e6dd" fill-opacity="1"><g transform="translate(204.036368, 215.361587)"><g><path d="M 0 -6.734375 L -49.5625 -0.640625 L -49.5625 -10.078125 L -15.84375 -13.71875 L -49.5625 -16.9375 L -49.5625 -26.390625 L 0 -20.28125 Z M 0 -6.734375 "/></g></g></g><g fill="#e6e6dd" fill-opacity="1"><g transform="translate(204.036368, 188.337258)"><g><path d="M 0 -2.1875 L -49.5 -2.1875 L -49.5 -22.015625 L -39.9375 -22.015625 L -39.9375 -12.28125 L -30.3125 -12.28125 L -30.3125 -21.609375 L -20.96875 -21.609375 L -20.96875 -12.28125 L -9.625 -12.28125 L -9.625 -22.640625 L 0 -22.640625 Z M 0 -2.1875 "/></g></g></g><g fill="#e6e6dd" fill-opacity="1"><g transform="translate(204.036368, 164.597338)"><g><path d="M 0 -2.1875 L -49.5 -2.1875 L -49.5 -12.390625 L -25.8125 -16.9375 L -49.5 -16.9375 L -49.5 -26.5 L 0 -26.5 L 0 -16.828125 L -24.78125 -11.875 L 0 -11.875 Z M 0 -2.1875 "/></g></g></g><g clip-path="url(#5056c75024)"><g clip-path="url(#ca17683076)"><g clip-path="url(#3243696a80)"><path fill="#fa7123" d="M 621.40625 94.917969 C 621.40625 94.902344 621.402344 94.890625 621.402344 94.875 C 621.402344 94.832031 621.398438 94.792969 621.394531 94.75 C 621.390625 94.699219 621.382812 94.648438 621.375 94.597656 C 621.367188 94.558594 621.355469 94.523438 621.34375 94.484375 C 621.328125 94.433594 621.3125 94.382812 621.289062 94.332031 C 621.28125 94.316406 621.277344 94.296875 621.269531 94.28125 C 621.261719 94.261719 621.246094 94.246094 621.238281 94.226562 C 621.210938 94.179688 621.183594 94.136719 621.152344 94.09375 C 621.128906 94.0625 621.105469 94.03125 621.078125 94 C 621.046875 93.960938 621.011719 93.925781 620.972656 93.890625 C 620.945312 93.863281 620.914062 93.835938 620.882812 93.8125 C 620.839844 93.78125 620.796875 93.75 620.75 93.726562 C 620.71875 93.707031 620.6875 93.683594 620.652344 93.667969 C 620.597656 93.644531 620.539062 93.621094 620.480469 93.601562 C 620.457031 93.59375 620.433594 93.582031 620.40625 93.574219 L 606.6875 89.996094 C 606.515625 89.953125 606.339844 89.941406 606.164062 89.964844 C 605.988281 89.992188 605.824219 90.046875 605.671875 90.136719 C 605.515625 90.226562 605.386719 90.34375 605.28125 90.484375 C 605.171875 90.625 605.097656 90.78125 605.050781 90.953125 C 605.007812 91.125 604.996094 91.300781 605.019531 91.476562 C 605.046875 91.652344 605.101562 91.816406 605.191406 91.96875 C 605.28125 92.125 605.398438 92.253906 605.539062 92.359375 C 605.679688 92.46875 605.839844 92.542969 606.011719 92.589844 L 618.226562 95.773438 L 592.769531 155.605469 L 514.773438 135.261719 L 540.230469 75.4375 L 549.296875 77.800781 C 548.910156 79.992188 548.960938 82.074219 549.472656 83.75 C 549.527344 83.921875 549.609375 84.074219 549.722656 84.210938 C 549.835938 84.347656 549.96875 84.457031 550.125 84.542969 C 550.28125 84.625 550.449219 84.675781 550.625 84.691406 C 550.800781 84.710938 550.976562 84.691406 551.144531 84.640625 C 551.316406 84.589844 551.46875 84.507812 551.605469 84.394531 C 551.742188 84.28125 551.851562 84.144531 551.9375 83.988281 C 552.019531 83.832031 552.070312 83.664062 552.085938 83.488281 C 552.105469 83.3125 552.085938 83.140625 552.035156 82.96875 C 551.488281 81.175781 551.664062 78.578125 552.503906 76.023438 C 553.203125 73.886719 554.324219 71.964844 555.570312 70.742188 C 556.578125 69.75 557.59375 69.292969 558.308594 69.53125 C 559.308594 69.859375 559.945312 71.605469 559.902344 73.875 C 559.898438 74.050781 559.929688 74.222656 559.992188 74.386719 C 560.058594 74.554688 560.152344 74.699219 560.277344 74.828125 C 560.398438 74.957031 560.542969 75.054688 560.703125 75.125 C 560.867188 75.199219 561.035156 75.234375 561.214844 75.238281 C 561.390625 75.242188 561.5625 75.210938 561.730469 75.148438 C 561.894531 75.082031 562.039062 74.988281 562.167969 74.867188 C 562.296875 74.742188 562.398438 74.601562 562.46875 74.4375 C 562.539062 74.273438 562.578125 74.105469 562.582031 73.925781 C 562.652344 70.3125 561.367188 67.714844 559.144531 66.984375 C 557.421875 66.417969 555.484375 67.074219 553.695312 68.828125 C 552.128906 70.363281 550.804688 72.621094 549.957031 75.183594 L 549.953125 75.203125 L 539.789062 72.550781 C 539.46875 72.46875 539.15625 72.5 538.859375 72.644531 C 538.5625 72.792969 538.347656 73.019531 538.21875 73.324219 L 511.699219 135.644531 C 511.625 135.824219 511.589844 136.007812 511.59375 136.203125 C 511.601562 136.398438 511.644531 136.582031 511.730469 136.757812 C 511.816406 136.933594 511.9375 137.082031 512.085938 137.207031 C 512.238281 137.328125 512.40625 137.414062 512.597656 137.464844 L 593.214844 158.488281 C 593.535156 158.570312 593.84375 158.539062 594.140625 158.394531 C 594.441406 158.246094 594.652344 158.023438 594.785156 157.714844 L 618.484375 102.011719 L 616.640625 156.480469 L 602.289062 152.738281 C 602.117188 152.695312 601.941406 152.683594 601.765625 152.707031 C 601.589844 152.734375 601.425781 152.789062 601.273438 152.878906 C 601.117188 152.96875 600.988281 153.085938 600.882812 153.226562 C 600.773438 153.367188 600.699219 153.523438 600.652344 153.695312 C 600.609375 153.867188 600.597656 154.042969 600.621094 154.21875 C 600.648438 154.394531 600.703125 154.558594 600.792969 154.710938 C 600.882812 154.867188 601 154.996094 601.140625 155.101562 C 601.28125 155.210938 601.441406 155.285156 601.613281 155.332031 L 617.585938 159.496094 C 617.78125 159.546875 617.980469 159.554688 618.179688 159.515625 C 618.378906 159.476562 618.5625 159.394531 618.722656 159.273438 C 618.886719 159.152344 619.015625 159 619.109375 158.820312 C 619.203125 158.640625 619.253906 158.449219 619.261719 158.246094 Z M 621.40625 94.917969 " fill-opacity="1" fill-rule="nonzero"/></g></g></g><g clip-path="url(#9221741584)"><g clip-path="url(#25ce5deb10)"><g clip-path="url(#fbb29a1d40)"><path fill="#fa7123" d="M 540.039062 117.074219 C 540.210938 117.121094 540.386719 117.132812 540.5625 117.105469 C 540.738281 117.082031 540.902344 117.023438 541.054688 116.933594 C 541.207031 116.84375 541.339844 116.730469 541.445312 116.589844 C 541.554688 116.445312 541.628906 116.289062 541.671875 116.117188 C 541.71875 115.945312 541.730469 115.773438 541.703125 115.597656 C 541.679688 115.421875 541.621094 115.253906 541.53125 115.101562 C 541.441406 114.949219 541.328125 114.820312 541.1875 114.710938 C 541.042969 114.605469 540.886719 114.527344 540.714844 114.484375 L 535.328125 113.078125 C 535.003906 112.996094 534.695312 113.027344 534.398438 113.171875 C 534.101562 113.320312 533.886719 113.542969 533.757812 113.851562 L 529.167969 124.632812 C 529.089844 124.8125 529.054688 125 529.0625 125.195312 C 529.066406 125.390625 529.113281 125.574219 529.199219 125.75 C 529.285156 125.925781 529.402344 126.074219 529.554688 126.195312 C 529.703125 126.320312 529.875 126.40625 530.0625 126.453125 L 541.820312 129.519531 C 542.140625 129.605469 542.453125 129.574219 542.75 129.429688 C 543.046875 129.28125 543.261719 129.054688 543.390625 128.75 L 547.949219 118.042969 L 549.738281 116.996094 C 549.886719 116.90625 550.015625 116.789062 550.121094 116.648438 C 550.226562 116.503906 550.300781 116.347656 550.34375 116.179688 C 550.386719 116.007812 550.398438 115.835938 550.371094 115.660156 C 550.347656 115.484375 550.289062 115.320312 550.203125 115.171875 C 550.113281 115.019531 549.996094 114.886719 549.859375 114.78125 C 549.71875 114.675781 549.5625 114.597656 549.390625 114.554688 C 549.222656 114.507812 549.046875 114.496094 548.875 114.519531 C 548.699219 114.542969 548.535156 114.597656 548.382812 114.683594 L 539.160156 120.089844 L 538.867188 119.59375 C 538.777344 119.441406 538.660156 119.308594 538.519531 119.203125 C 538.378906 119.09375 538.222656 119.019531 538.050781 118.972656 C 537.878906 118.929688 537.703125 118.917969 537.527344 118.945312 C 537.351562 118.96875 537.1875 119.023438 537.035156 119.113281 C 536.878906 119.203125 536.75 119.320312 536.644531 119.460938 C 536.535156 119.605469 536.460938 119.761719 536.414062 119.933594 C 536.371094 120.105469 536.359375 120.277344 536.382812 120.453125 C 536.410156 120.628906 536.464844 120.792969 536.554688 120.949219 L 537.523438 122.601562 C 537.613281 122.753906 537.730469 122.882812 537.871094 122.992188 C 538.011719 123.097656 538.171875 123.175781 538.34375 123.21875 C 538.515625 123.265625 538.6875 123.273438 538.863281 123.25 C 539.039062 123.226562 539.203125 123.167969 539.359375 123.078125 L 544.070312 120.316406 L 541.378906 126.636719 L 532.242188 124.253906 L 535.769531 115.960938 Z M 540.039062 117.074219 " fill-opacity="1" fill-rule="nonzero"/></g></g></g><g clip-path="url(#1ffac4fc92)"><g clip-path="url(#9b6cc7fe69)"><g clip-path="url(#3febc5a820)"><path fill="#fa7123" d="M 556.308594 97.304688 C 556.128906 96.9375 555.84375 96.703125 555.445312 96.597656 L 543.6875 93.53125 C 543.367188 93.449219 543.054688 93.480469 542.757812 93.625 C 542.460938 93.769531 542.246094 93.996094 542.117188 94.300781 L 537.527344 105.085938 C 537.453125 105.265625 537.417969 105.453125 537.421875 105.648438 C 537.425781 105.84375 537.472656 106.027344 537.558594 106.203125 C 537.644531 106.375 537.761719 106.527344 537.914062 106.648438 C 538.0625 106.773438 538.234375 106.859375 538.421875 106.90625 L 550.183594 109.972656 C 550.503906 110.058594 550.8125 110.027344 551.109375 109.878906 C 551.410156 109.734375 551.621094 109.507812 551.753906 109.203125 L 556.339844 98.417969 C 556.5 98.042969 556.492188 97.671875 556.308594 97.304688 Z M 549.738281 107.089844 L 540.601562 104.707031 L 544.128906 96.414062 L 553.269531 98.796875 Z M 549.738281 107.089844 " fill-opacity="1" fill-rule="nonzero"/></g></g></g><g clip-path="url(#37ad7cf107)"><g clip-path="url(#112556a658)"><g clip-path="url(#9c68a285a8)"><path fill="#fa7123" d="M 552.667969 132.265625 L 564.429688 135.332031 C 564.75 135.414062 565.058594 135.382812 565.359375 135.238281 C 565.65625 135.089844 565.871094 134.863281 566 134.558594 L 570.589844 123.773438 C 570.664062 123.597656 570.699219 123.410156 570.695312 123.214844 C 570.6875 123.019531 570.644531 122.835938 570.558594 122.660156 C 570.472656 122.484375 570.351562 122.335938 570.203125 122.214844 C 570.050781 122.089844 569.882812 122.003906 569.695312 121.953125 L 557.933594 118.886719 C 557.613281 118.804688 557.304688 118.835938 557.003906 118.980469 C 556.707031 119.128906 556.492188 119.355469 556.363281 119.660156 L 551.773438 130.441406 C 551.699219 130.621094 551.664062 130.808594 551.667969 131.003906 C 551.675781 131.199219 551.71875 131.382812 551.804688 131.558594 C 551.890625 131.734375 552.007812 131.882812 552.160156 132.003906 C 552.3125 132.128906 552.480469 132.214844 552.667969 132.265625 Z M 558.375 121.769531 L 567.515625 124.15625 L 563.988281 132.445312 L 554.847656 130.0625 Z M 558.375 121.769531 " fill-opacity="1" fill-rule="nonzero"/></g></g></g><g clip-path="url(#7fb1b33a11)"><g clip-path="url(#dc2a578262)"><g clip-path="url(#5b9c763710)"><path fill="#fa7123" d="M 574.359375 115.011719 L 578.949219 104.230469 C 579.023438 104.050781 579.058594 103.863281 579.054688 103.667969 C 579.050781 103.472656 579.003906 103.289062 578.917969 103.113281 C 578.832031 102.9375 578.714844 102.789062 578.5625 102.667969 C 578.410156 102.542969 578.242188 102.457031 578.054688 102.410156 L 566.292969 99.339844 C 565.972656 99.257812 565.664062 99.289062 565.367188 99.433594 C 565.066406 99.582031 564.855469 99.808594 564.722656 100.113281 L 560.136719 110.898438 C 560.058594 111.078125 560.023438 111.261719 560.027344 111.457031 C 560.035156 111.652344 560.078125 111.835938 560.164062 112.011719 C 560.25 112.1875 560.371094 112.335938 560.519531 112.460938 C 560.671875 112.582031 560.839844 112.667969 561.03125 112.71875 L 572.789062 115.785156 C 573.109375 115.867188 573.417969 115.835938 573.71875 115.691406 C 574.015625 115.542969 574.230469 115.316406 574.359375 115.011719 Z M 563.207031 110.515625 L 566.734375 102.226562 L 575.875 104.609375 L 572.347656 112.898438 Z M 563.207031 110.515625 " fill-opacity="1" fill-rule="nonzero"/></g></g></g><g clip-path="url(#80590b9890)"><g clip-path="url(#c5f2bb7d91)"><g clip-path="url(#f06025a58d)"><path fill="#fa7123" d="M 580.5 124.859375 C 580.179688 124.773438 579.867188 124.804688 579.570312 124.953125 C 579.273438 125.097656 579.058594 125.324219 578.929688 125.628906 L 574.339844 136.414062 C 574.265625 136.59375 574.230469 136.78125 574.234375 136.976562 C 574.238281 137.167969 574.285156 137.355469 574.371094 137.53125 C 574.457031 137.703125 574.574219 137.851562 574.726562 137.976562 C 574.875 138.101562 575.046875 138.1875 575.234375 138.234375 L 586.996094 141.300781 C 587.316406 141.386719 587.625 141.355469 587.921875 141.207031 C 588.21875 141.0625 588.433594 140.835938 588.566406 140.53125 L 593.152344 129.746094 C 593.230469 129.566406 593.265625 129.382812 593.257812 129.1875 C 593.253906 128.992188 593.207031 128.808594 593.121094 128.632812 C 593.035156 128.457031 592.917969 128.308594 592.769531 128.183594 C 592.617188 128.0625 592.445312 127.976562 592.257812 127.925781 Z M 586.550781 138.417969 L 577.414062 136.035156 L 580.941406 127.742188 L 590.082031 130.125 Z M 586.550781 138.417969 " fill-opacity="1" fill-rule="nonzero"/></g></g></g><g clip-path="url(#d8f6572d65)"><g clip-path="url(#8ecf172fd9)"><g clip-path="url(#5b86018439)"><path fill="#fa7123" d="M 596.925781 120.984375 L 601.304688 110.683594 L 603.921875 109.148438 C 604.070312 109.058594 604.199219 108.941406 604.304688 108.800781 C 604.410156 108.660156 604.484375 108.503906 604.527344 108.332031 C 604.570312 108.164062 604.582031 107.988281 604.558594 107.816406 C 604.53125 107.640625 604.476562 107.476562 604.386719 107.324219 C 604.296875 107.171875 604.183594 107.042969 604.042969 106.9375 C 603.902344 106.828125 603.746094 106.753906 603.574219 106.707031 C 603.40625 106.664062 603.234375 106.652344 603.058594 106.675781 C 602.882812 106.695312 602.71875 106.753906 602.566406 106.839844 L 599.917969 108.390625 C 599.691406 108.453125 599.492188 108.570312 599.324219 108.738281 L 593.34375 112.246094 L 593.050781 111.75 C 592.960938 111.597656 592.847656 111.46875 592.703125 111.359375 C 592.5625 111.253906 592.40625 111.175781 592.234375 111.132812 C 592.0625 111.085938 591.890625 111.078125 591.714844 111.101562 C 591.539062 111.125 591.371094 111.183594 591.21875 111.273438 C 591.066406 111.363281 590.9375 111.480469 590.828125 111.621094 C 590.722656 111.761719 590.644531 111.917969 590.601562 112.089844 C 590.554688 112.261719 590.546875 112.4375 590.570312 112.613281 C 590.59375 112.789062 590.652344 112.953125 590.742188 113.105469 L 591.710938 114.757812 C 591.800781 114.910156 591.917969 115.042969 592.058594 115.148438 C 592.199219 115.253906 592.355469 115.332031 592.527344 115.375 C 592.699219 115.421875 592.875 115.429688 593.050781 115.40625 C 593.226562 115.382812 593.390625 115.324219 593.542969 115.234375 L 597.429688 112.957031 L 594.914062 118.871094 L 585.773438 116.488281 L 589.300781 108.195312 L 593.832031 109.375 C 594.003906 109.421875 594.175781 109.429688 594.351562 109.40625 C 594.527344 109.382812 594.695312 109.324219 594.847656 109.234375 C 595 109.144531 595.128906 109.03125 595.238281 108.886719 C 595.34375 108.746094 595.421875 108.589844 595.464844 108.417969 C 595.511719 108.246094 595.519531 108.074219 595.496094 107.898438 C 595.472656 107.71875 595.414062 107.554688 595.324219 107.402344 C 595.234375 107.25 595.117188 107.121094 594.976562 107.011719 C 594.835938 106.90625 594.679688 106.828125 594.507812 106.785156 L 588.859375 105.3125 C 588.539062 105.226562 588.230469 105.257812 587.929688 105.40625 C 587.632812 105.550781 587.417969 105.777344 587.289062 106.082031 L 582.699219 116.867188 C 582.625 117.046875 582.589844 117.234375 582.59375 117.429688 C 582.601562 117.621094 582.644531 117.808594 582.730469 117.980469 C 582.816406 118.15625 582.933594 118.304688 583.085938 118.429688 C 583.238281 118.550781 583.40625 118.636719 583.59375 118.6875 L 595.355469 121.753906 C 595.675781 121.835938 595.984375 121.808594 596.28125 121.660156 C 596.582031 121.515625 596.792969 121.289062 596.925781 120.984375 Z M 596.925781 120.984375 " fill-opacity="1" fill-rule="nonzero"/></g></g></g><g clip-path="url(#b2c2bfa9f7)"><g clip-path="url(#07ff86e20d)"><g clip-path="url(#389d3a24ab)"><path fill="#fa7123" d="M 574.617188 90.308594 C 574.667969 90.480469 574.753906 90.632812 574.863281 90.769531 C 574.976562 90.90625 575.113281 91.015625 575.269531 91.097656 C 575.425781 91.183594 575.59375 91.234375 575.769531 91.25 C 575.945312 91.265625 576.121094 91.25 576.289062 91.199219 C 576.460938 91.144531 576.613281 91.0625 576.75 90.949219 C 576.886719 90.835938 576.996094 90.703125 577.082031 90.546875 C 577.164062 90.390625 577.214844 90.222656 577.230469 90.046875 C 577.25 89.871094 577.230469 89.695312 577.179688 89.527344 C 576.632812 87.730469 576.804688 85.132812 577.648438 82.578125 C 578.347656 80.445312 579.464844 78.519531 580.714844 77.296875 C 581.722656 76.308594 582.734375 75.863281 583.453125 76.085938 C 584.449219 76.417969 585.089844 78.160156 585.046875 80.429688 C 585.042969 80.609375 585.074219 80.78125 585.136719 80.945312 C 585.203125 81.109375 585.296875 81.257812 585.417969 81.386719 C 585.542969 81.515625 585.6875 81.613281 585.847656 81.683594 C 586.011719 81.757812 586.179688 81.792969 586.359375 81.796875 C 586.535156 81.800781 586.707031 81.769531 586.875 81.707031 C 587.039062 81.640625 587.183594 81.546875 587.3125 81.421875 C 587.441406 81.300781 587.542969 81.15625 587.613281 80.996094 C 587.683594 80.832031 587.722656 80.660156 587.722656 80.484375 C 587.796875 76.871094 586.511719 74.273438 584.289062 73.542969 C 582.566406 72.972656 580.628906 73.628906 578.839844 75.386719 C 577.273438 76.917969 575.945312 79.175781 575.101562 81.742188 L 575.097656 81.761719 L 556.796875 76.988281 C 556.625 76.941406 556.449219 76.933594 556.273438 76.957031 C 556.097656 76.980469 555.933594 77.039062 555.78125 77.128906 C 555.625 77.21875 555.496094 77.332031 555.390625 77.476562 C 555.28125 77.617188 555.207031 77.773438 555.160156 77.945312 C 555.117188 78.117188 555.105469 78.292969 555.128906 78.46875 C 555.15625 78.644531 555.210938 78.808594 555.300781 78.960938 C 555.390625 79.113281 555.507812 79.246094 555.648438 79.351562 C 555.789062 79.457031 555.949219 79.535156 556.121094 79.578125 L 574.441406 84.359375 C 574.054688 86.546875 574.105469 88.628906 574.617188 90.308594 Z M 574.617188 90.308594 " fill-opacity="1" fill-rule="nonzero"/></g></g></g><g clip-path="url(#3cf9b636fe)"><g clip-path="url(#2405cc05fa)"><g clip-path="url(#f596de593d)"><path fill="#fa7123" d="M 610.191406 86.988281 C 610.1875 87.164062 610.21875 87.335938 610.28125 87.503906 C 610.347656 87.667969 610.441406 87.816406 610.5625 87.941406 C 610.6875 88.070312 610.828125 88.171875 610.992188 88.242188 C 611.15625 88.3125 611.324219 88.351562 611.503906 88.355469 C 611.679688 88.359375 611.851562 88.328125 612.019531 88.261719 C 612.183594 88.199219 612.328125 88.105469 612.457031 87.980469 C 612.585938 87.859375 612.6875 87.714844 612.757812 87.550781 C 612.828125 87.390625 612.867188 87.21875 612.871094 87.042969 C 612.941406 83.425781 611.65625 80.832031 609.433594 80.097656 C 607.710938 79.535156 605.773438 80.1875 603.984375 81.941406 C 602.417969 83.476562 601.089844 85.734375 600.246094 88.300781 L 600.242188 88.316406 L 581.378906 83.398438 C 581.207031 83.355469 581.035156 83.34375 580.859375 83.367188 C 580.683594 83.390625 580.519531 83.449219 580.363281 83.539062 C 580.210938 83.628906 580.082031 83.746094 579.972656 83.886719 C 579.867188 84.027344 579.789062 84.183594 579.746094 84.355469 C 579.703125 84.527344 579.691406 84.703125 579.714844 84.878906 C 579.738281 85.054688 579.796875 85.21875 579.886719 85.371094 C 579.976562 85.527344 580.09375 85.65625 580.234375 85.761719 C 580.375 85.871094 580.53125 85.945312 580.703125 85.992188 L 599.585938 90.914062 C 599.199219 93.105469 599.25 95.1875 599.761719 96.867188 C 599.816406 97.035156 599.898438 97.1875 600.011719 97.328125 C 600.125 97.464844 600.257812 97.574219 600.414062 97.65625 C 600.570312 97.738281 600.738281 97.789062 600.914062 97.808594 C 601.089844 97.824219 601.265625 97.808594 601.433594 97.753906 C 601.605469 97.703125 601.757812 97.621094 601.894531 97.507812 C 602.03125 97.394531 602.140625 97.261719 602.226562 97.105469 C 602.308594 96.945312 602.359375 96.78125 602.375 96.605469 C 602.394531 96.425781 602.375 96.253906 602.324219 96.082031 C 601.777344 94.289062 601.953125 91.691406 602.792969 89.136719 C 603.496094 87 604.613281 85.078125 605.859375 83.855469 C 606.867188 82.863281 607.882812 82.410156 608.597656 82.644531 C 609.59375 82.972656 610.238281 84.71875 610.191406 86.988281 Z M 610.191406 86.988281 " fill-opacity="1" fill-rule="nonzero"/></g></g></g></svg>